<?xml version="1.0" encoding="UTF-8"?>
<svg width="18px" height="18px" viewBox="0 0 18 18" version="1.1" xmlns="http://www.w3.org/2000/svg" xmlns:xlink="http://www.w3.org/1999/xlink">
    <title>打招呼备份</title>
    <g id="资产统计优化" stroke="none" stroke-width="1" fill="none" fill-rule="evenodd">
        <g id="1资产统计" transform="translate(-1860, -106)">
            <g id="打招呼备份" transform="translate(1860, 106)">
                <rect id="矩形" x="0" y="0" width="18" height="18"></rect>
                <g id="编组" transform="translate(0.9946, 0.9999)" fill="#AAAAAA" fill-rule="nonzero">
                    <path d="M15.5967201,13.7321776 C16.1151551,14.2532565 16.1137974,15.0933999 15.5940762,15.6118348 C15.3348945,15.8697303 14.995893,16 14.6556053,16 C14.3139599,16 13.9736722,15.8697303 13.714419,15.6091908 L7.99834329,9.875822 L2.26368821,15.5493796 C2.00450649,15.8046311 1.66679132,15.9335431 1.32914761,15.9335431 C0.986215914,15.9335431 0.644570542,15.8019157 0.384031046,15.5387322 C-0.131759928,15.0162956 -0.12775823,14.1761523 0.39467845,13.6590751 L6.12268782,7.99352087 L0.415901766,2.26815547 C-0.102533176,1.7483628 -0.101175446,0.906933242 0.418545733,0.3884983 C0.938338404,-0.131294371 1.77841023,-0.128578911 2.2982029,0.391142268 L8.0129209,6.12315333 L13.747576,0.44966714 C14.2686549,-0.0674100713 15.1114422,-0.0621221362 15.6272331,0.460314544 C16.1443103,0.982751183 16.1390224,1.82418074 15.6165857,2.33997171 L9.88864782,8.00545455 L15.5967201,13.7321776 Z" id="形状"></path>
                </g>
            </g>
        </g>
    </g>
</svg>