
<svg width="128.840524px" height="36.2945754px" viewBox="0 0 128.840524 36.2945754" version="1.1" xmlns="http://www.w3.org/2000/svg" xmlns:xlink="http://www.w3.org/1999/xlink">
    <defs>
        <linearGradient x1="57.697611%" y1="-24.2285865%" x2="57.697611%" y2="100%" id="linearGradient-jybv0ph76j-1">
            <stop stop-color="#8BF972" offset="0%"></stop>
            <stop stop-color="#FFFFFF" offset="100%"></stop>
        </linearGradient>
    </defs>
    <g id="资产统计优化" stroke="none" stroke-width="1" fill="none" fill-rule="evenodd">
        <g id="1资产统计" transform="translate(-641.5933, -495)">
            <g id="编组-6" transform="translate(641.5933, 495)">
                <path d="M0.406692731,10.0339449 C7.04881985,11.3657393 12.9438004,14.7069147 18.0916344,20.0574711 C25.8133855,28.0833057 37.9449935,28.1091403 43.924964,24.0833057 C49.9049346,20.0574711 60.695185,0 73.7542852,0 C86.8133855,0 91.8133855,29.842076 101.813385,29.842076 C111.813385,29.842076 119.806557,13.0289067 128.764035,13.0289067 C128.86602,13.1215068 128.86602,20.8767296 128.764035,36.2945754 L0.406692731,36.2945754 L0.406692731,10.0339449 Z" id="路径-6" fill="url(#linearGradient-jybv0ph76j-1)" opacity="0.5"></path>
                <path d="M0,10.4506392 C6.64212712,11.7824336 12.5371077,15.123609 17.6849417,20.4741654 C25.4066927,28.5 37.5383008,28.5258346 43.5182713,24.5 C49.4982419,20.4741654 60.2884923,0.416694327 73.3475925,0.416694327 C86.4066927,0.416694327 91.4066927,30.2587703 101.406693,30.2587703 C111.406693,30.2587703 119.399864,13.4456011 128.357343,13.4456011" id="路径-6" stroke="#6AE66C"></path>
                <rect id="矩形" stroke="#FFFFFF" stroke-width="2" fill="#6AE66C" x="97.4066927" y="25.5" width="8" height="8" rx="4"></rect>
            </g>
        </g>
    </g>
</svg>