
<svg width="48px" height="44.5101959px" viewBox="0 0 48 44.5101959" version="1.1" xmlns="http://www.w3.org/2000/svg" xmlns:xlink="http://www.w3.org/1999/xlink">
  <defs>
      <linearGradient x1="89.6223211%" y1="6.53921676%" x2="59.3165066%" y2="60.5502747%" id="linearGradient-qaq_-jhj-z-1">
          <stop stop-color="#8BF972" offset="0%"></stop>
          <stop stop-color="#26BF60" offset="100%"></stop>
      </linearGradient>
      <rect id="path-qaq_-jhj-z-2" x="0" y="0" width="36.3878207" height="35.5101959" rx="8"></rect>
      <linearGradient x1="94.9632469%" y1="9.17850164%" x2="0%" y2="93.4650777%" id="linearGradient-qaq_-jhj-z-4">
          <stop stop-color="#00C44A" offset="0%"></stop>
          <stop stop-color="#FFFFFF" offset="100%"></stop>
      </linearGradient>
      <filter x="-33.0%" y="-33.8%" width="166.0%" height="167.6%" filterUnits="objectBoundingBox" id="filter-qaq_-jhj-z-5">
          <feGaussianBlur stdDeviation="4" in="SourceGraphic"></feGaussianBlur>
      </filter>
  </defs>
  <g id="资产统计优化" stroke="none" stroke-width="1" fill="none" fill-rule="evenodd">
      <g id="1资产统计" transform="translate(-318, -490.7713)">
          <g id="编组-3" transform="translate(318, 490.7713)">
              <path d="M21.9047574,3.52029862 L36.1780493,3.43409624 C40.5962468,3.4074129 44.1995346,6.96743846 44.2262179,11.3856359 C44.2264145,11.4181894 44.2264124,11.4507437 44.2262116,11.4832972 L44.1237903,28.0873127 C44.0967717,32.4674161 40.5523637,36.0113667 36.1722569,36.03782 L21.8989649,36.1240224 C17.4807675,36.1507057 13.8774797,32.5906802 13.8507964,28.1724827 C13.8505998,28.1399293 13.8506019,28.1073749 13.8508027,28.0748215 L13.953224,11.4708059 C13.9802426,7.09070254 17.5246506,3.54675191 21.9047574,3.52029862 Z" id="矩形备份-5" fill="url(#linearGradient-qaq_-jhj-z-1)" transform="translate(29.0385, 19.7791) rotate(15) translate(-29.0385, -19.7791)"></path>
              <g id="矩形" transform="translate(0, 9)">
                  <mask id="mask-qaq_-jhj-z-3" fill="white">
                      <use xlink:href="#path-qaq_-jhj-z-2"></use>
                  </mask>
                  <use id="蒙版" fill="#FFFFFF" xlink:href="#path-qaq_-jhj-z-2"></use>
                  <rect fill="url(#linearGradient-qaq_-jhj-z-4)" filter="url(#filter-qaq_-jhj-z-5)" mask="url(#mask-qaq_-jhj-z-3)" x="0" y="0" width="36.3878207" height="35.5101959" rx="8"></rect>
              </g>
              <g id="编组" transform="translate(12, 19)" fill="#FFFFFF" fill-rule="nonzero">
                  <path d="M6.0100415,8.86461309 C4.93790553,8.86712566 3.97004926,8.22290497 3.55857406,7.2328696 C3.14709886,6.24283422 3.37321411,5.10237907 4.13129771,4.34422926 C4.8893813,3.58607944 6.0298167,3.35986458 7.01988801,3.7712533 C8.00995932,4.18264202 8.65426455,5.15044202 8.65184509,6.2225782 C8.65171086,7.68158682 7.4690501,8.86435088 6.0100415,8.86461309 L6.0100415,8.86461309 Z M6.0100415,4.63421421 C5.13613816,4.63129691 4.42532633,5.33736151 4.4223876,6.21126484 C4.41946705,7.08516817 5.12552899,7.79598265 5.9994323,7.79892467 C6.87333562,7.80184848 7.58415274,7.09578921 7.58709655,6.2218859 C7.58976988,5.34811568 6.8838105,4.63750775 6.0100415,4.63445404 L6.0100415,4.63421421 Z" id="形状"></path>
                  <path d="M6.01027226,14.7692096 C5.88433992,14.7686732 5.76279222,14.722888 5.66781713,14.6401901 C5.43935985,14.4357323 0,9.56336189 0,6.2172706 C0,2.78579629 2.68864205,0 5.99988784,0 C6.7888781,-0.0006879816 7.56963193,0.160395019 8.29392187,0.473301055 C8.56309771,0.5902588 8.68809968,0.901992109 8.57430125,1.17251875 C8.52679612,1.30323745 8.42742872,1.40854279 8.29968399,1.46354642 C8.17193925,1.51855006 8.02715299,1.51837107 7.89954463,1.46305178 C7.29919575,1.20630094 6.65283357,1.07454733 5.99988784,1.07582825 C3.25955446,1.07582825 1.03844213,3.38855424 1.03844213,6.21750137 C1.03844213,8.42269091 4.36030311,11.9723169 5.99988784,13.5096727 C7.65031852,11.9713938 10.9613335,8.42176785 10.9613335,6.21750137 C10.960242,5.01838315 10.5542383,3.85477167 9.80912432,2.9152554 C9.62372718,2.68843661 9.65127382,2.35553032 9.87143085,2.16226949 C9.97449286,2.07016326 10.1110947,2.02484648 10.2487736,2.03708848 C10.3864525,2.04933049 10.5129156,2.11803825 10.5981096,2.22688366 C11.5057944,3.35885051 12.0002376,4.76655669 11.999776,6.21750137 C11.999776,9.56359267 6.56041582,14.4357324 6.33195855,14.6404208 C6.24590573,14.7240844 6.13028597,14.7703655 6.01027226,14.7692096 L6.01027226,14.7692096 Z" id="路径"></path>
              </g>
          </g>
      </g>
  </g>
</svg>