<?xml version="1.0" encoding="UTF-8"?>
<svg width="75px" height="75px" viewBox="0 0 75 75" version="1.1" xmlns="http://www.w3.org/2000/svg" xmlns:xlink="http://www.w3.org/1999/xlink">
    <title>ozbet资产备份 5</title>
    <g id="资产统计优化" stroke="none" stroke-width="1" fill="none" fill-rule="evenodd">
        <g id="1资产统计" transform="translate(-1401, -207)" fill="#FFFFFF">
            <g id="ozbet资产备份-5" transform="translate(1401.5, 207.5)">
                <rect id="矩形" opacity="0.200000003" x="0" y="0" width="74" height="74" rx="6"></rect>
                <g id="编组" transform="translate(21, 17)" fill-rule="nonzero">
                    <path d="M15.8311346,-2.34347868e-15 C9.07651715,-2.34347868e-15 3.5883905,5.48812665 3.5883905,12.348285 C3.5883905,19.1029024 10.237467,27.651715 15.9366755,34.6174142 C21.530343,27.5461741 28.2849604,19.2084433 28.2849604,12.348285 C28.1794195,5.48812665 22.6912929,-2.34347868e-15 15.8311346,-2.34347868e-15 L15.8311346,-2.34347868e-15 Z M15.8311346,20.474934 C11.292876,20.474934 7.70448549,16.7810026 7.70448549,12.348285 C7.70448549,7.81002639 11.3984169,4.22163588 15.8311346,4.22163588 C20.3693931,4.22163588 23.9577836,7.91556728 23.9577836,12.348285 C24.0633245,16.8865435 20.3693931,20.474934 15.8311346,20.474934 Z" id="形状"></path>
                    <path d="M11.1873351,12.348285 C11.1873351,13.6147757 11.7150396,14.7757256 12.5593668,15.6200528 C13.4036939,16.4643799 14.6701847,16.9920844 15.8311346,16.9920844 C17.0976253,16.9920844 18.2585752,16.4643799 19.1029024,15.6200528 C19.9472296,14.7757256 20.474934,13.5092348 20.474934,12.348285 C20.474934,11.0817942 19.9472296,9.92084433 19.1029024,9.07651715 C18.2585752,8.23218997 16.9920844,7.70448549 15.8311346,7.70448549 C14.5646438,7.70448549 13.4036939,8.23218997 12.5593668,9.07651715 C11.7150396,9.92084433 11.1873351,11.0817942 11.1873351,12.348285 Z" id="路径"></path>
                    <path d="M15.9366755,40 C8.02110818,40 0,37.4670185 0,32.7176781 C0,30.0791557 2.63852243,27.8627968 7.2823219,26.4907652 C8.12664908,26.2796834 8.97097625,26.701847 9.18205805,27.5461741 C9.39313984,28.3905013 8.97097625,29.2348285 8.12664908,29.4459103 C4.64379947,30.3957784 3.06068602,31.76781 3.06068602,32.7176781 C3.06068602,34.4063325 8.12664908,36.939314 16.0422164,36.939314 C23.9577836,36.939314 29.0237467,34.4063325 29.0237467,32.7176781 C29.0237467,31.76781 27.1240106,30.2902375 23.6411609,29.3403694 C22.7968338,29.1292876 22.3746702,28.2849604 22.585752,27.4406332 C22.7968338,26.5963061 23.6411609,26.1741425 24.4854881,26.3852243 C29.3403694,27.651715 32.1899736,29.9736148 32.1899736,32.7176781 C31.8733509,37.4670185 23.8522427,40 15.9366755,40 L15.9366755,40 Z" id="路径"></path>
                </g>
            </g>
        </g>
    </g>
</svg>