
<svg width="15px" height="15px" viewBox="0 0 15 15" version="1.1" xmlns="http://www.w3.org/2000/svg" xmlns:xlink="http://www.w3.org/1999/xlink">
  <g id="页面-1" stroke="none" stroke-width="1" fill="none" fill-rule="evenodd">
      <g id="Ozfund事务管理-1待办事务" transform="translate(-1790, -175)">
          <rect fill="transparent" x="0" y="0" width="1920" height="1080"></rect>
          <g id="编组-7" transform="translate(1775, 165)" fill="#FFFFFF" fill-rule="nonzero">
              <g id="编组" transform="translate(15, 10)">
                  <path d="M11.7308008,10.2755335 C11.5067214,10.1937602 11.2074098,10.2096543 10.9725624,10.2789443 C10.789398,10.3329982 10.6471845,10.5301164 10.4981039,10.6744966 C9.92067505,11.2336995 9.36355979,11.8132114 8.76987998,12.3557237 C7.59490628,13.4293557 6.1895075,13.7599637 4.64626355,13.34966 C1.51269475,12.5164655 0.447306874,8.79500864 2.66393923,6.45382945 C3.43986661,5.63434747 4.27835284,4.8697331 5.09046728,4.08217787 C5.77430015,3.41900537 6.43230053,2.72761127 7.15462145,2.10571499 C7.98016448,1.39498134 8.95699922,1.30848132 9.95772499,1.72747657 C10.92354,2.13185892 11.5238532,3.11059371 11.4783003,4.1234541 C11.4481535,4.79369065 11.1796358,5.37244083 10.6937621,5.84860641 C9.52461287,6.99445452 8.34789543,8.13318662 7.17333518,9.27390982 C7.08805381,9.35670466 7.00352748,9.44372408 6.90481752,9.50958598 C6.50627456,9.77561334 6.0664751,9.76151985 5.73270211,9.48112202 C5.38754987,9.19116692 5.31008837,8.68326505 5.58401699,8.28541003 C5.71616356,8.09350328 5.90441533,7.93618961 6.07433091,7.76992469 C6.71250301,7.14544864 7.36719567,6.53594908 7.98836184,5.89621952 C8.3455944,5.52830014 8.33737906,5.08200095 8.03337544,4.80272851 C7.7349446,4.52856364 7.33120637,4.50615952 6.97501646,4.83995328 C6.10604179,5.65432766 5.22320708,6.46279803 4.43539711,7.34751861 C3.59002581,8.29685448 3.73231122,9.66909853 4.65526986,10.5207496 C5.58723482,11.380746 6.98650354,11.4462616 7.94550543,10.5631686 C9.3475965,9.27205723 10.7413823,7.96304338 12.0256183,6.56527873 C13.4777924,4.98474904 13.2626655,2.54224918 11.6740304,1.09491496 C10.0677063,-0.36850383 7.62390265,-0.375308168 6.00290956,1.1368318 C4.50007718,2.53878641 3.03323412,3.97777536 1.58470929,5.43200049 C0.511070135,6.50989173 -0.0134713839,7.82399585 0.000262799823,9.96423046 C0.00259977148,13.5925561 4.63364391,16.3186396 8.51151913,14.3290874 C9.90942163,13.6118957 10.8239672,12.3712889 11.9212277,11.3301376 C12.0001094,11.2552725 12.0408265,11.1259554 12.0622368,11.0152852 C12.1230159,10.7010907 12.0473341,10.3910516 11.7308008,10.2755335 Z" id="路径"></path>
                  <path d="M14.1307324,8.00178032 C13.6315212,8.03525281 13.0018923,8.69666856 13,9.18959897 C12.9982756,9.64338456 13.3602246,10.0099945 13.799837,9.9997921 C14.2994761,9.98819579 15.0249493,9.23195745 14.9993402,8.74940369 C14.9764923,8.31824931 14.5742532,7.97206356 14.1307324,8.00178032 Z" id="路径"></path>
              </g>
          </g>
      </g>
  </g>
</svg>