<?xml version="1.0" encoding="UTF-8"?>
<svg width="1920px" height="1080px" viewBox="0 0 1920 1080" version="1.1" xmlns="http://www.w3.org/2000/svg" xmlns:xlink="http://www.w3.org/1999/xlink">
    <title>编组 + 编组备份蒙版</title>
    <defs>
        <rect id="path-1" x="0" y="0" width="1920" height="1080"></rect>
        <polygon id="path-3" points="0 0 842 0 842 758 0 758"></polygon>
        <polygon id="path-5" points="0 0 1225 0 1225 1102 0 1102"></polygon>
    </defs>
    <g id="页面-1" stroke="none" stroke-width="1" fill="none" fill-rule="evenodd">
        <g id="编组-+-编组备份蒙版">
            <mask id="mask-2" fill="white">
                <use xlink:href="#path-1"></use>
            </mask>
            <g id="蒙版"></g>
            <g id="编组" opacity="0.400000006" mask="url(#mask-2)">
                <g transform="translate(197.2514, 238.0097) rotate(50) translate(-197.2514, -238.0097)translate(-223.7486, -140.9903)">
                    <mask id="mask-4" fill="white">
                        <use xlink:href="#path-3"></use>
                    </mask>
                    <g id="Clip-2" stroke="none" fill="none"></g>
                    <path d="M827.171837,2.00790514 C832.839724,1.09354414 837.559452,6.33992095 836.013425,11.8708827 C828.644118,38.2424242 824.717157,66.0500659 824.717157,94.7509881 C824.717157,101.106719 824.912056,107.383399 825.307123,113.623188 C826.294789,130.400527 828.662554,146.824769 832.255026,162.772069 C833.126806,166.627141 834.040727,170.482213 835.075801,174.295125 C837.569987,183.488801 839.231901,192.869565 840.440804,202.318841 C840.464508,202.492754 840.485578,202.664032 840.501381,202.843215 C841.091347,207.820817 841.486414,212.793149 841.723453,217.847167 C841.920987,221.557312 842,225.270092 842,228.980237 C842,237.151515 841.565427,245.246377 840.738421,253.220026 C840.659408,253.852437 840.580394,254.482213 840.501381,255.114625 C839.395195,264.985507 837.659536,274.658762 835.331277,284.092227 C831.227853,300.714097 825.307123,316.664032 817.769254,331.625823 C781.072842,404.740448 706.336792,455.509881 619.524875,457.799736 C617.391516,457.918314 615.260791,457.957839 613.130065,457.957839 C612.023879,457.957839 610.920327,457.957839 609.816774,457.918314 C560.293869,457.249012 514.600476,440.824769 477.466857,413.42556 C475.573172,412.00527 473.134294,410.58498 471.280116,409.12253 L471.280116,570.84058 C471.280116,575.146245 465.372554,576.342556 463.700106,572.379447 L462.557047,569.673254 C454.134229,549.72332 443.633361,530.642951 430.461843,513.457181 C414.027076,492.01054 394.255314,473.256917 371.912985,457.957839 C371.675945,457.799736 371.438905,457.641634 371.201866,457.483531 C368.989493,455.98419 366.779754,454.524374 364.533143,453.104084 C325.387318,428.27141 278.982805,413.820817 229.262367,413.662714 L122.325763,413.662714 C117.966862,413.662714 114.434967,417.198946 114.434967,421.559947 L114.434967,528.152833 C114.434967,542.798419 117.195165,556.814229 122.246749,569.683794 C138.821106,612.400527 180.332062,642.642951 228.869935,642.642951 C229.106975,642.642951 229.380887,642.642951 229.617927,642.603426 L229.854967,642.603426 C232.736319,642.722003 235.617671,642.5639 238.496389,642.208169 L238.535895,642.208169 C255.110253,640.274045 270.852336,631.588933 281.271557,616.901186 C300.843153,589.346509 294.371963,551.167325 266.830559,531.586298 C266.156312,531.114625 265.487333,530.640316 264.81572,530.205534 C253.216567,522.073781 241.180207,515.125165 228.790921,509.280632 C215.535123,503.001318 201.902694,498 188.064831,494.245059 C183.758606,493.075099 184.332769,486.880105 188.778584,486.505929 C195.987232,485.902503 203.280159,485.594203 210.638932,485.594203 C259.016144,485.594203 304.277598,498.779974 343.104735,521.836627 C350.484577,526.139657 357.664253,530.87747 364.533143,535.968379 C366.779754,537.628458 368.989493,539.325428 371.201866,541.061924 C376.764402,545.40448 382.168912,549.98419 387.34165,554.801054 C407.819264,573.673254 425.220627,595.818182 438.755606,620.413702 C459.235854,657.486166 471.122089,700.00527 471.280116,745.288538 L471.280116,746.155468 L471.280116,746.155468 C471.280116,752.698287 465.980957,758 459.441289,758 L383.022256,758 C376.277153,758 370.930587,752.366271 371.230837,745.623188 C371.770761,733.438735 371.412568,721.256917 370.174693,709.16469 C368.320514,710.624506 366.426828,712.044796 364.533143,713.467721 C327.399524,740.864295 281.703497,757.288538 232.183226,757.960474 C231.079673,758 229.973487,758 228.869935,758 C226.739209,758 224.60585,757.960474 222.475125,757.841897 C135.663208,755.552042 60.9271582,704.782609 24.2281126,631.667984 C16.6928772,616.703557 10.772147,600.753623 6.66872281,584.134387 C4.34046413,574.698287 2.60480524,565.027668 1.49861899,555.156785 C1.41960568,554.524374 1.34059238,553.891963 1.26157908,553.262187 C0.434573169,545.285903 0,537.193676 0,529.019763 C0,525.309618 0.0790133034,521.599473 0.276546562,517.886693 C0.513586472,512.83531 0.908652989,507.860343 1.49861899,502.885375 C1.51442165,502.708827 1.53549186,502.537549 1.55656208,502.366271 C2.75756429,493.003953 4.36943568,483.699605 6.85308718,474.59552 C7.91976678,470.695652 8.85475753,466.756258 9.74497408,462.814229 C13.3374456,446.864295 15.7052109,430.442688 16.6928772,413.662714 C17.0879437,407.42556 17.2828432,401.14888 17.2828432,394.793149 C17.2828432,366.089592 13.355882,338.284585 5.98657462,311.913043 C4.44054765,306.382082 9.16027564,301.13307 14.8281633,302.050066 L89.377215,314.094862 C97.6578092,315.43083 106.056923,315.894598 114.434967,315.478261 L114.434967,315.478261 C132.152384,314.687747 149.435227,312.397892 166.207117,308.727273 C166.365144,308.687747 166.520537,308.648221 166.678563,308.608696 C171.453601,307.583663 176.149625,306.397892 180.845649,305.096179 C196.31382,301.778656 212.374591,300.042161 228.869935,300.042161 C289.204493,300.042161 344.092401,323.412385 384.973884,361.631094 C389.864808,347.259552 396.022578,333.480896 403.24176,320.374177 C421.551776,287.093544 447.004595,258.274045 477.466857,235.928854 C484.333113,230.83531 491.515423,226.097497 498.892631,221.794466 C537.722402,198.737813 582.983856,185.552042 631.361068,185.552042 C638.719841,185.552042 646.012768,185.862978 653.221416,186.466403 C657.667231,186.837945 658.241394,193.035573 653.935169,194.202899 C640.097306,197.957839 626.464877,202.959157 613.209079,209.241107 C600.819793,215.083004 588.783433,222.031621 577.18428,230.163373 C576.510033,230.598155 575.841054,231.072464 575.169441,231.546772 C547.625403,251.1278 541.154214,289.304348 560.725809,316.86166 C571.14503,331.546772 586.889747,340.231884 603.461471,342.166008 L603.503611,342.166008 C606.382329,342.521739 609.263681,342.679842 612.145033,342.561265 L612.382073,342.561265 C612.619113,342.600791 612.893025,342.600791 613.130065,342.600791 C661.665304,342.600791 703.178894,312.361001 719.753251,269.644269 C724.802201,256.772069 727.565033,242.758893 727.565033,228.110672 L727.565033,121.517787 C727.565033,117.156785 724.030504,113.623188 719.674237,113.623188 L612.734999,113.623188 C563.014561,113.781291 516.612682,128.229249 477.466857,153.061924 C438.363173,177.894598 406.478672,213.069829 385.721877,254.758893 C384.736844,246.310935 384.262765,237.704875 384.262765,228.980237 C384.262765,192.065876 392.9832,157.206851 408.490877,126.334651 C446.095942,51.4413702 523.594824,0 613.130065,0 C629.625409,0 645.68618,1.73913043 661.154351,5.05401845 C665.847741,6.35573123 670.543765,7.54150198 675.318803,8.56653491 C675.476829,8.60606061 675.634856,8.6455863 675.792883,8.68511199 C692.564773,12.3583663 709.847616,14.6482213 727.565033,15.4361001 L727.707257,15.4440053 C735.990485,15.8577075 744.294783,15.3992095 752.480561,14.0737813 L827.171837,2.00790514 Z" id="Fill-1" stroke="none" fill="#FFFFFF" fill-rule="evenodd" mask="url(#mask-4)"></path>
                </g>
            </g>
            <g id="编组备份" opacity="0.400000006" mask="url(#mask-2)">
                <g transform="translate(1096, 319)">
                    <mask id="mask-6" fill="white">
                        <use xlink:href="#path-5"></use>
                    </mask>
                    <g id="Clip-2" stroke="none" fill="none"></g>
                    <path d="M1203.42696,2.91914441 C1211.673,1.58982274 1218.53958,9.21714101 1216.29032,17.2581963 C1205.56894,55.5978252 1199.85572,96.0252937 1199.85572,137.751437 C1199.85572,146.991563 1200.13927,156.116762 1200.71404,165.188329 C1202.15097,189.579658 1205.59576,213.457646 1210.82234,236.642242 C1212.09066,242.246846 1213.4203,247.85145 1214.92619,253.39476 C1218.55491,266.760764 1220.97278,280.398761 1222.73157,294.136362 C1222.76606,294.389201 1222.79671,294.63821 1222.81971,294.898711 C1223.67803,302.135277 1224.2528,309.364182 1224.59766,316.711845 C1224.88505,322.105749 1225,327.503485 1225,332.89739 C1225,344.777005 1224.36775,356.545524 1223.16457,368.137822 C1223.04961,369.057238 1222.93466,369.972822 1222.81971,370.892238 C1221.21035,385.242782 1218.68519,399.30601 1215.29788,413.020625 C1209.32793,437.185931 1200.71404,460.374357 1189.74743,482.126197 C1136.35894,588.422129 1027.62776,662.232044 901.327758,665.561094 C898.223999,665.733485 895.124072,665.790948 892.024145,665.790948 C890.414789,665.790948 888.809264,665.790948 887.203739,665.733485 C815.154382,664.760437 748.676465,640.882448 694.6519,601.048769 C691.896835,598.983915 688.348588,596.919061 685.651,594.792912 L685.651,829.902795 C685.651,836.162483 677.05627,837.901711 674.623076,832.14004 L672.960074,828.205707 C660.705974,799.201977 645.428583,771.462444 626.265746,746.477326 C602.355306,715.297645 573.589975,688.033143 541.084806,665.790948 C540.739944,665.561094 540.395082,665.331241 540.05022,665.101387 C536.831507,662.921606 533.616626,660.799288 530.3481,658.734434 C473.396039,622.63205 405.883535,601.623404 333.546793,601.39355 L177.968004,601.39355 C171.626373,601.39355 166.487927,606.534615 166.487927,612.874752 L166.487927,767.842245 C166.487927,789.134377 170.503655,809.510924 177.85305,828.221031 C201.966574,890.323721 262.359592,934.29094 332.975855,934.29094 C333.320717,934.29094 333.719224,934.29094 334.064086,934.233476 L334.408949,934.233476 C338.600939,934.405867 342.792929,934.176013 346.981088,933.658841 L347.038565,933.658841 C371.15209,930.846962 394.054765,918.220322 409.21337,896.866895 C437.687485,856.807193 428.272749,801.30131 388.203605,772.833905 C387.222664,772.148174 386.249386,771.458613 385.272277,770.826515 C368.397025,759.004363 350.885693,748.902284 332.860901,740.405352 C313.575446,731.276322 293.742043,724.005277 273.60976,718.546247 C267.344765,716.845328 268.180098,707.838887 274.648178,707.294899 C285.135818,706.417624 295.746075,705.969408 306.452128,705.969408 C376.834651,705.969408 442.684153,725.139223 499.172566,758.659582 C509.909272,764.915439 520.354762,771.803394 530.3481,779.204689 C533.616626,781.618155 536.831507,784.085253 540.05022,786.609815 C548.142984,792.923135 556.00584,799.581236 563.531497,806.584118 C593.323751,834.021011 618.640461,866.215879 638.332087,901.973483 C668.128173,955.870389 685.421091,1017.68576 685.651,1083.51975 L685.651,1084.78011 L685.651,1084.78011 C685.651,1094.29223 677.941416,1102 668.427053,1102 L557.247344,1102 C547.434101,1102 539.655545,1093.80954 540.09237,1084.00627 C540.877889,1066.2922 540.356764,1048.58196 538.555818,1031.00196 C535.85823,1033.12428 533.103165,1035.18914 530.3481,1037.25782 C476.323535,1077.08767 409.841786,1100.96566 337.796261,1101.94254 C336.190736,1102 334.58138,1102 332.975855,1102 C329.875928,1102 326.772169,1101.94254 323.672242,1101.77015 C197.372245,1098.4411 88.6410556,1024.63118 35.2487386,918.335249 C24.2859556,896.579578 15.6720666,873.391151 9.70212047,849.229677 C6.31480827,835.51123 3.78965132,821.451834 2.18029485,807.101289 C2.06534081,806.181874 1.95038678,805.262458 1.83543274,804.346874 C0.632247187,792.750745 0,780.986057 0,769.10261 C0,763.708706 0.114954034,758.314801 0.402339119,752.917066 C0.747201221,745.573234 1.32197139,738.340498 2.18029485,731.107762 C2.20328565,730.851092 2.23394006,730.602084 2.26459447,730.353075 C4.01189579,716.741894 6.35695808,703.214993 9.97034655,689.979239 C11.522226,684.30951 12.8825154,678.582317 14.1776642,672.851294 C19.4042409,649.662867 22.8490302,625.78871 24.2859556,601.39355 C24.8607258,592.325814 25.144279,583.200615 25.144279,573.960488 C25.144279,532.230514 19.4310636,491.806877 8.70968398,453.467248 C6.46041671,445.426193 13.3270043,437.795043 21.5730404,439.128196 L130.032171,456.639232 C142.079354,458.581497 154.298968,459.255735 166.487927,458.650453 L166.487927,458.650453 C192.264454,457.501184 217.408733,454.172133 241.809642,448.835692 C242.03955,448.778229 242.265627,448.720765 242.495535,448.663302 C249.44259,447.173082 256.274692,445.449178 263.106793,443.556714 C285.610961,438.733614 308.977284,436.209052 332.975855,436.209052 C420.754755,436.209052 500.609491,470.185288 560.086708,525.748635 C567.202363,504.854916 576.161114,484.823149 586.664081,465.768262 C613.302762,417.384018 650.333288,375.485485 694.6519,342.999468 C704.641406,335.594342 715.090728,328.706387 725.823603,322.45053 C782.315847,288.930171 848.165349,269.760357 918.547872,269.760357 C929.253925,269.760357 939.864182,270.212403 950.351822,271.089678 C956.819902,271.629835 957.655235,280.640108 951.39024,282.337196 C931.257957,287.796225 911.424554,295.06727 892.139099,304.200131 C874.114307,312.693233 856.602975,322.795311 839.727723,334.617463 C838.746782,335.249561 837.773505,335.939123 836.796395,336.628684 C796.723419,365.096089 787.308684,420.598142 815.782798,460.661675 C830.941403,482.01127 853.84791,494.637911 877.957603,497.44979 L878.018912,497.44979 C882.207071,497.966961 886.399061,498.196815 890.591051,498.024425 L890.935914,498.024425 C891.280776,498.081888 891.679283,498.081888 892.024145,498.081888 C962.636576,498.081888 1023.03343,454.118501 1047.14695,392.01581 C1054.49251,373.301873 1058.51207,352.929156 1058.51207,331.633193 L1058.51207,176.6657 C1058.51207,170.325564 1053.3698,165.188329 1047.032,165.188329 L891.449375,165.188329 C819.112633,165.418183 751.603961,186.422998 694.6519,222.525382 C637.761149,258.627767 591.373364,309.766426 561.17494,370.375066 C559.741846,358.093207 559.052122,345.581493 559.052122,332.89739 C559.052122,279.230337 571.739215,228.551385 594.300861,183.668582 C649.011317,74.7867942 761.762065,0 892.024145,0 C916.022716,0 939.389039,2.5283928 961.893207,7.3476627 C968.721477,9.2401264 975.553578,10.9640306 982.500633,12.45425 C982.730541,12.5117134 982.96045,12.5691769 983.190358,12.6266404 C1007.59127,17.9669124 1032.73555,21.295963 1058.51207,22.4414015 L1058.71899,22.4528942 C1070.77,23.0543452 1082.85167,22.3877689 1094.76091,20.4608272 L1203.42696,2.91914441 Z" id="Fill-1" stroke="none" fill="#FFFFFF" fill-rule="evenodd" mask="url(#mask-6)"></path>
                </g>
            </g>
        </g>
    </g>
</svg>