<?xml version="1.0" encoding="UTF-8"?>
<svg width="126px" height="40px" viewBox="0 0 126 40" version="1.1" xmlns="http://www.w3.org/2000/svg" xmlns:xlink="http://www.w3.org/1999/xlink">
    <title>logo</title>
    <defs>
        <polygon id="path-1" points="0 0 39.4196232 0 39.4196232 35.4699695 0 35.4699695"></polygon>
        <polygon id="path-3" points="0 0 16.6834747 0 16.6834747 21.9552338 0 21.9552338"></polygon>
    </defs>
    <g id="资产统计优化" stroke="none" stroke-width="1" fill="none" fill-rule="evenodd">
        <g id="1资产统计备份" transform="translate(-67, -13)">
            <g id="logo" transform="translate(67, 13)">
                <rect id="矩形" x="0" y="0" width="126" height="40"></rect>
                <g id="编组">
                    <g>
                        <mask id="mask-2" fill="white">
                            <use xlink:href="#path-1"></use>
                        </mask>
                        <g id="Clip-2"></g>
                        <path d="M38.725383,0.0938807827 C38.990813,0.0511505737 39.2117533,0.296723598 39.1393633,0.55536704 C38.794254,1.78951602 38.6105141,3.09077656 38.6105141,4.43376189 C38.6105141,4.73111388 38.6195629,5.0249469 38.6381631,5.31676909 C38.6844123,6.10199952 38.7952595,6.87038922 38.9634154,7.61665975 C39.0041348,7.79713205 39.046865,7.97735299 39.0953763,8.15581445 C39.212256,8.58613279 39.2899245,9.02524853 39.3467305,9.46738051 C39.3477359,9.47542385 39.3487413,9.48346718 39.3494954,9.49176187 C39.3771444,9.72476718 39.3954932,9.95752115 39.4065528,10.1937941 C39.4158529,10.3674798 39.4196232,10.5411655 39.4196232,10.7148513 C39.4196232,11.097161 39.3992635,11.4759517 39.360555,11.8492126 C39.3567847,11.8786211 39.3530144,11.9082809 39.3494954,11.9379407 C39.2977164,12.3996783 39.2162777,12.8523671 39.1074413,13.2937451 C38.9151554,14.0714349 38.6381631,14.8179567 38.2852618,15.5179781 C36.5672561,18.9394111 33.0681547,21.3152107 29.0040091,21.4222876 C28.9042215,21.4278174 28.8044339,21.4298282 28.7046463,21.4298282 C28.6528673,21.4298282 28.6013397,21.4298282 28.5495608,21.4278174 C26.2310699,21.3963981 24.0917945,20.6280084 22.3534291,19.3458508 C22.2647011,19.2792419 22.1505863,19.2128844 22.0636177,19.1445161 L22.0636177,26.7120361 C22.0636177,26.9133708 21.7871282,26.9694228 21.7087057,26.7839234 L21.6554186,26.6572409 C21.2610439,25.7237115 20.7693951,24.8309015 20.1528233,24.0265681 C19.3831769,23.0231623 18.4576908,22.1456849 17.4115548,21.4298282 C17.4004952,21.4222876 17.3894356,21.4149983 17.378376,21.4074577 C17.2748181,21.3373299 17.1715115,21.2689615 17.0661941,21.202604 C15.2335709,20.0405937 13.0608654,19.364451 10.7333258,19.3569104 L5.72685342,19.3569104 C5.52275384,19.3569104 5.35736279,19.5223014 5.35736279,19.726401 L5.35736279,24.7142731 C5.35736279,25.399716 5.48655884,26.055499 5.72308311,26.6577436 C6.49901343,28.6567633 8.44248388,30.0718873 10.7147256,30.0718873 C10.7257852,30.0718873 10.7388556,30.0718873 10.7499152,30.0698765 L10.7609748,30.0698765 C10.8959519,30.0754063 11.0306778,30.068117 11.165655,30.0515276 L11.1674144,30.0515276 C11.9433448,29.9610401 12.6803152,29.5546004 13.1681936,28.8673981 C14.0843796,27.5779512 13.7814978,25.7913258 12.4920509,24.8751398 C12.4606317,24.8530206 12.4292124,24.8306501 12.3977931,24.8105418 C11.8546167,24.4299916 11.2913321,24.1047393 10.7112066,23.8312659 C10.0906132,23.5374329 9.45242494,23.3034222 8.80443389,23.1277256 C8.60284784,23.0729304 8.62974274,22.7831191 8.83786399,22.7655243 C9.17543264,22.7373726 9.51677161,22.7227941 9.86137817,22.7227941 C12.1260793,22.7227941 14.2452463,23.3398685 16.0630396,24.4186806 C16.4084003,24.6202667 16.7447121,24.8419611 17.0661941,25.0802448 C17.1715115,25.1576619 17.2748181,25.2370898 17.378376,25.3185286 C17.6387789,25.5216227 17.8918926,25.7360279 18.1339466,25.9614925 C19.0926114,26.8444997 19.9075017,27.880833 20.5411655,29.0317837 C21.4998303,30.7663789 22.0563285,32.7560985 22.0636177,34.8750141 L22.0636177,34.9157335 L22.0636177,34.9157335 C22.0636177,35.2218829 21.8155312,35.4699695 21.5093818,35.4699695 L17.9318579,35.4699695 C17.6159057,35.4699695 17.3658083,35.2062989 17.3796328,34.8908495 C17.4050195,34.3205268 17.3881788,33.7504556 17.3303674,33.1846573 C17.2433988,33.2530257 17.1546708,33.3193832 17.0661941,33.385992 C15.3275773,34.6681497 13.188302,35.4365394 10.8700625,35.4679586 C10.8182835,35.4699695 10.7665045,35.4699695 10.7147256,35.4699695 C10.614938,35.4699695 10.5154017,35.4679586 10.4156141,35.4624288 C6.35121718,35.355352 2.85236713,32.9795523 1.13411002,29.5581194 C0.781460116,28.858098 0.504216466,28.1118275 0.31218188,27.3338863 C0.20309417,26.8925084 0.121906773,26.4398195 0.0701278136,25.9780819 C0.066357501,25.9484221 0.0628385426,25.9187623 0.0590682301,25.8893539 C0.0203596878,25.516093 0,25.1375536 0,24.7549925 C0,24.5813068 0.00351895839,24.4076211 0.0128190627,24.2339353 C0.0238786462,23.9976624 0.0424788548,23.7649084 0.0701278136,23.5319031 C0.0708818761,23.5236084 0.0716359386,23.5158165 0.0728927095,23.5077731 C0.12894469,23.0696628 0.204350941,22.6343174 0.320727922,22.2082721 C0.370747402,22.0257889 0.414483027,21.841295 0.45620782,21.6570524 C0.62436376,20.9105305 0.735210949,20.1421408 0.781460116,19.3569104 C0.799808971,19.0650882 0.809109075,18.7712551 0.809109075,18.4739032 C0.809109075,17.1309178 0.625117822,15.8296573 0.2802599,14.5957597 C0.207869899,14.3368649 0.428810215,14.0912918 0.693988865,14.134022 L4.18429288,14.6975581 C4.57188101,14.7603966 4.96525029,14.7820131 5.35736279,14.7624075 L5.35736279,14.7624075 C6.18683156,14.7254584 6.99594063,14.6183815 7.78117106,14.4464553 C7.78846033,14.4446958 7.79600096,14.4429363 7.80329023,14.4409255 C8.02674408,14.3929168 8.24667898,14.3376189 8.46661388,14.2765399 C9.19076525,14.1214543 9.94256557,14.0402669 10.7147256,14.0402669 C13.5394438,14.0402669 16.1090374,15.1339089 18.0230994,16.9220425 C18.2520831,16.2496701 18.5403863,15.6049467 18.8784577,14.9916425 C19.7355754,13.434252 20.9272455,12.0854856 22.3534291,11.0401036 C22.6746597,10.8015685 23.0109716,10.5798741 23.3563322,10.3785394 C25.174377,9.29972728 27.2932926,8.68265279 29.558245,8.68265279 C29.9026003,8.68265279 30.2441906,8.69723133 30.5815079,8.725383 C30.7896291,8.74297779 30.816524,9.03278915 30.614938,9.08758436 C29.9671983,9.26328093 29.32901,9.49729166 28.7084166,9.79112468 C28.1282912,10.064598 27.5647551,10.389599 27.0218301,10.7704005 C26.9901595,10.7905089 26.9587402,10.8128794 26.9275723,10.8349986 C25.637874,11.7511845 25.3349923,13.5375586 26.2511782,14.8272568 C26.7390567,15.5144591 27.4762785,15.9208988 28.2519574,16.0113863 L28.2539683,16.0113863 C28.3886941,16.0279757 28.5236713,16.035265 28.6583971,16.0297352 L28.6697081,16.0297352 C28.6807676,16.031746 28.6935867,16.031746 28.7046463,16.031746 C30.976888,16.031746 32.9203584,14.6166221 33.6962888,12.6176023 C33.932813,12.0153577 34.0620091,11.3595747 34.0620091,10.6741319 L34.0620091,5.68625972 C34.0620091,5.48216014 33.896618,5.31676909 33.6925184,5.31676909 L28.6862974,5.31676909 C26.3585065,5.32405836 24.1860524,6.00020108 22.3534291,7.16221141 C20.5225653,8.32422174 19.0297729,9.97034021 18.058289,11.9210999 C18.0120399,11.5259712 17.9899207,11.1230504 17.9899207,10.7148513 C17.9899207,8.9875454 18.3981199,7.35625683 19.1240307,5.91172442 C20.8847667,2.40709321 24.5130641,-0.000125677085 28.7046463,-0.000125677085 C29.4768063,-0.000125677085 30.228858,0.0813130742 30.9530093,0.236398597 C31.1726929,0.297477661 31.3926278,0.352775578 31.6160816,0.400784225 C31.6236223,0.402795058 31.6309115,0.404554538 31.6382008,0.406314017 C32.4234312,0.578240269 33.2325403,0.685317146 34.0620091,0.722266209 L34.0687956,0.722517563 C34.4566351,0.741871835 34.8452287,0.72050673 35.2285438,0.658673604 L38.725383,0.0938807827 Z" id="Fill-1" fill="#1C63FF" mask="url(#mask-2)"></path>
                    </g>
                    <path d="M89.2532268,11.5020423 C86.1195943,8.98221669 81.5532431,8.96990034 78.4030213,11.4691149 C76.4721185,13.0008672 75.3902902,15.1280775 75.138182,17.3319509 C75.1002275,17.6637384 75.0748407,17.9965313 75.0748407,18.3300783 L75.0748407,34.5112544 C75.0748407,35.0624741 75.5217484,35.5091304 76.0729681,35.5091304 L78.5679096,35.5091304 C79.118878,35.5091304 79.5657857,35.0624741 79.5657857,34.5112544 L79.5657857,25.9564152 L79.5657857,18.3300783 C79.5657857,17.9857231 79.6115321,17.6524275 79.6892006,17.3319509 C80.1670248,15.3628423 82.0174943,13.9243424 84.1688346,14.1038093 C86.2832259,14.2800085 87.9846423,16.0832234 88.0464754,18.2038985 C88.1163518,20.6000578 86.1874599,22.5714286 83.8071359,22.5714286 C83.0266812,22.5714286 82.295492,22.3592857 81.6671065,21.9895437 C81.1789767,21.7022458 80.5636617,22.0860637 80.5636617,22.652616 L80.5636617,25.7261748 C80.5636617,26.1700662 80.856992,26.5604193 81.2817806,26.6886099 C84.262087,27.586447 87.6267139,26.8592794 89.9816511,24.5045935 C93.6195001,20.8667446 93.3766919,14.8179065 89.2532268,11.5020423" id="Fill-3" fill="#1C63FF"></path>
                    <path d="M100.760271,31.0183112 C98.4214204,31.0183112 96.5189207,29.1158114 96.5189207,26.7769609 C96.5189207,24.4381103 98.4214204,22.5356106 100.760271,22.5356106 C103.09887,22.5356106 105.001621,24.4381103 105.001621,26.7769609 C105.001621,29.1158114 103.09887,31.0183112 100.760271,31.0183112 M100.899773,18.0459224 C95.7035278,17.964735 91.5267755,22.4230039 92.0767384,27.7127525 C92.4831781,31.6213098 95.5547261,34.8381405 99.442421,35.4117307 C101.474117,35.7113449 103.392452,35.3036484 105.001621,34.4070681 L105.001621,34.5111287 C105.001621,35.0623484 105.448529,35.5092561 105.999497,35.5092561 L108.494439,35.5092561 C109.045658,35.5092561 109.492566,35.0623484 109.492566,34.5111287 L109.492566,27.0134852 C109.492566,22.2829997 105.629253,18.1195692 100.899773,18.0459224" id="Fill-5" fill="#1C63FF"></path>
                    <path d="M45.8844274,31.0183112 C43.5455768,31.0183112 41.6430771,29.1158114 41.6430771,26.7769609 C41.6430771,24.4381103 43.5455768,22.5356106 45.8844274,22.5356106 C48.2230266,22.5356106 50.1257776,24.4381103 50.1257776,26.7769609 C50.1257776,29.1158114 48.2230266,31.0183112 45.8844274,31.0183112 M54.6167226,26.7769609 C54.6167226,21.6267139 50.157951,17.5180786 44.8903216,18.0997122 C40.8862497,18.5420955 37.649562,21.7787832 37.2071787,25.7828551 C36.6255451,31.0504845 40.7341804,35.5092561 45.8844274,35.5092561 C47.4247257,35.5092561 48.8695095,35.1070894 50.1257776,34.4070681 L50.1257776,34.5111287 C50.1257776,35.0623484 50.5726853,35.5092561 51.1236537,35.5092561 L53.6185952,35.5092561 C54.1698149,35.5092561 54.6167226,35.0623484 54.6167226,34.5111287 L54.6167226,27.0265556 L54.6039035,27.0265556 C54.6064171,26.9428546 54.6167226,26.8611645 54.6167226,26.7769609" id="Fill-7" fill="#1C63FF"></path>
                    <g transform="translate(108.9935, 18.0448)">
                        <mask id="mask-4" fill="white">
                            <use xlink:href="#path-3"></use>
                        </mask>
                        <g id="Clip-10"></g>
                        <path d="M15.6844211,0 L13.3784979,0 C12.9841232,0 12.6269489,0.231999899 12.466585,0.591939072 L8.56958991,9.34484535 C8.4818673,9.54240973 8.2016074,9.54240973 8.11388479,9.34484535 L4.21663838,0.591939072 C4.05652577,0.231999899 3.6993515,0 3.3049768,0 L0.999053641,0 C0.276661755,0 -0.206440961,0.743756991 0.0873920642,1.40381304 L6.05102112,14.7987281 C6.07992685,14.8633262 6.07992685,14.9369729 6.05102112,15.001571 L3.58020962,20.5514711 C3.28637659,21.2112757 3.76947931,21.9552841 4.4918712,21.9552841 L6.79804571,21.9552841 C7.19216905,21.9552841 7.54934333,21.7232842 7.70970729,21.3630937 L16.5960826,1.40381304 C16.8899157,0.743756991 16.4068129,0 15.6844211,0" id="Fill-9" fill="#1C63FF" mask="url(#mask-4)"></path>
                    </g>
                    <path d="M69.2282673,26.7769609 C69.2282673,29.2120801 67.1654036,31.1741507 64.6961002,31.0085083 C62.4444696,30.8574445 60.7455667,28.8838115 60.7455667,26.6271538 L60.7455667,19.042793 C60.7455667,18.4915734 60.298659,18.0446656 59.7476907,18.0446656 L57.2527492,18.0446656 C56.7015295,18.0446656 56.2546218,18.4915734 56.2546218,19.042793 L56.2546218,26.5482286 C56.2546218,31.442597 60.2599505,35.5992409 65.1538162,35.5074966 C69.8993829,35.4187686 73.7192123,31.5438927 73.7192123,26.7769609 L73.7192123,19.042793 C73.7192123,18.4915734 73.2723045,18.0446656 72.7210848,18.0446656 L70.2261433,18.0446656 C69.675175,18.0446656 69.2282673,18.4915734 69.2282673,19.042793 L69.2282673,26.7769609 Z" id="Fill-11" fill="#1C63FF"></path>
                </g>
            </g>
        </g>
    </g>
</svg>