
<svg width="16.9998718px" height="16px" viewBox="0 0 16.9998718 16" version="1.1" xmlns="http://www.w3.org/2000/svg" xmlns:xlink="http://www.w3.org/1999/xlink">
  <g id="资产统计优化" stroke="none" stroke-width="1" fill="none" fill-rule="evenodd">
      <g id="1资产统计" transform="translate(-300.4333, -107)">
          <rect fill="#F6F7F9" x="0" y="0" width="1920" height="1080"></rect>
          <g id="打招呼" transform="translate(300, 106)">
              <rect id="矩形" x="0" y="0" width="18" height="18"></rect>
              <g id="编组" transform="translate(8.9332, 9) scale(-1, 1) translate(-8.9332, -9)translate(0.4333, 1)" fill="#1C63FF" fill-rule="nonzero">
                  <path d="M8.50000195,0 C9.64266987,0 10.7517747,0.199880964 11.7961636,0.593928571 C12.8072287,0.975476196 13.7159074,1.52202382 14.4963618,2.21845239 C15.2799553,2.91738095 15.8954807,3.73226191 16.3259138,4.64035714 C17.2245245,6.52731868 17.2245245,8.71077657 16.3259138,10.5977381 C15.89536,11.5058333 15.2798346,12.3207143 14.496241,13.0196429 C13.7159074,13.7155952 12.807108,14.2632143 11.7961636,14.6441667 C10.7517747,15.0382143 9.64266987,15.2380952 8.50000195,15.2380952 C7.57413782,15.2393919 6.65331819,15.103715 5.7682888,14.8355952 C5.14431169,15.1871429 4.41625791,15.4630952 3.60078937,15.6570238 C2.6441774,15.8846429 1.56272171,16 0.386365489,16 C0.212709094,16 0.0604014157,15.8857283 0.0140569612,15.7207141 C-0.0322874934,15.5556999 0.0387193913,15.3804731 0.187629752,15.292381 C1.37956125,14.5872619 2.18114485,13.9370238 2.73654243,13.2197619 C0.992594035,11.7779762 1.95010557e-06,9.75619048 1.95010557e-06,7.61904762 C-0.000772980946,6.58929291 0.229417326,5.572111 0.67408559,4.64035714 C1.10463945,3.73226191 1.72016486,2.91738096 2.50363767,2.21845239 C3.284092,1.5225 4.19289148,0.975476196 5.20383581,0.593928571 C6.24822475,0.199880946 7.35732957,0 8.50000195,0 Z M11.7057669,6.11359225 C10.7668899,6.11359225 10.0058111,6.86404282 10.0058111,7.78977052 C10.0058111,8.71549823 10.7668899,9.4659488 11.7057669,9.4659488 C12.6446439,9.4659488 13.4057854,8.71549823 13.4057854,7.78977052 C13.4057854,6.86404282 12.6446439,6.11359225 11.7057669,6.11359225 Z M5.75581177,6.11359225 C4.81693478,6.11359225 4.05585595,6.86404282 4.05585595,7.78977052 C4.05585595,8.71549823 4.81693478,9.4659488 5.75581177,9.4659488 C6.69468876,9.4659488 7.45583031,8.71549823 7.45583031,7.78977052 C7.45583031,6.86404282 6.69468876,6.11359225 5.75581177,6.11359225 Z" id="形状结合"></path>
              </g>
          </g>
      </g>
  </g>
</svg>