<?xml version="1.0" encoding="UTF-8"?>
<svg width="22px" height="22px" viewBox="0 0 22 22" version="1.1" xmlns="http://www.w3.org/2000/svg" xmlns:xlink="http://www.w3.org/1999/xlink">
    <title>编组 2</title>
    <g id="页面-1" stroke="none" stroke-width="1" fill="none" fill-rule="evenodd">
        <g id="Ozfund事务管理-1待办事务" transform="translate(-1726, -32)">
            <g id="编组-2" transform="translate(1726, 32)">
                <rect id="矩形备份" x="0" y="0" width="22" height="22"></rect>
                <g id="编组" transform="translate(2, 0)" fill="#0385F2" fill-rule="nonzero">
                    <path d="M10.9999451,1.95548885 C10.9999451,0.877728545 10.1045387,0 9.00001206,0 C7.89772857,0 7.00003082,0.875538775 7.00003082,1.95548885 C7.00003082,2.06554323 7.00934114,2.17348164 7.02728641,2.27861519 C4.26559592,3.21982245 1.99995712,6.11021989 1.99995712,9.52990187 L1.99995712,12.2221621 C1.99995712,12.2221621 1.99995712,16.0995305 1.02577489,16.1333366 C0.444917315,16.1333366 0,16.5710937 0,17.1111056 C0,17.6548574 0.447594634,18.0888255 0.99982178,18.0888255 L17.0002023,18.0888255 C17.5550827,18.0888255 18,17.651093 18,17.1111302 C18,16.5672801 17.5524054,16.1333366 17.0002265,16.1333366 C16.000067,16.1333366 16.000067,12.2494727 16.000067,12.2494727 L16.000067,9.53022173 C16.000067,6.10616021 13.8816566,3.21458176 10.9732442,2.27622859 C10.9910528,2.17028219 10.9999853,2.06298137 10.9999451,1.95548885 Z M11.9999839,19.0649706 C11.996993,20.6865073 10.6664862,22 8.99998794,22 C7.34494666,22 6.00295872,20.6919448 5.99996784,19.0649706 L11.9999839,19.0649706 L11.9999839,19.0649706 Z" id="形状"></path>
                </g>
            </g>
        </g>
    </g>
</svg>