<?xml version="1.0" encoding="UTF-8"?>
<svg width="75px" height="75px" viewBox="0 0 75 75" version="1.1" xmlns="http://www.w3.org/2000/svg" xmlns:xlink="http://www.w3.org/1999/xlink">
    <title>ozbet资产备份 4</title>
    <g id="资产统计优化" stroke="none" stroke-width="1" fill="none" fill-rule="evenodd">
        <g id="1资产统计" transform="translate(-872, -207)" fill="#FFFFFF">
            <g id="ozbet资产备份-4" transform="translate(872.5, 207.5)">
                <rect id="矩形" opacity="0.200000003" x="0" y="0" width="74" height="74" rx="6"></rect>
                <g id="编组" transform="translate(17, 17)" fill-rule="nonzero">
                    <path d="M34.4312796,21.1753555 L40,27.8483412 L36.3601896,27.8483412 C36.2559242,31.7677725 34.7962085,34.9905213 31.6919431,37.3127962 C29.464455,38.985782 26.943128,39.4739336 24.2085308,39.2606635 L24.2085308,34.6919431 C24.6303318,34.6919431 25.056872,34.7203791 25.478673,34.6919431 C25.957346,34.6635071 26.464455,34.6635071 26.9146919,34.5545024 C28.6919431,34.1753555 30.0758294,33.1753555 31.056872,31.6066351 C31.7440758,30.4976303 32.0947867,29.2559242 32.1232227,27.8767773 L28.8578199,27.8767773 C30.7440758,25.6113744 32.5734597,23.3886256 34.4312796,21.1706161 L34.4312796,21.1753555 L34.4312796,21.1753555 Z M17.2559242,21.9905213 C17.7819905,21.9905213 18.2654028,22.0947867 18.6872038,22.450237 C19.1658768,22.8293839 19.4028436,23.3364929 19.4597156,23.9668246 L19.4597156,37.0805687 C19.5023697,37.7819905 19.1943128,38.4597156 18.6350711,38.8862559 C18.2606635,39.1658768 17.8009479,39.3080569 17.3317536,39.2938389 L3.26540284,39.2938389 C2.19905213,39.2938389 1.46445498,38.7014218 1.19905213,37.6966825 C1.14218009,37.492891 1.11848341,37.2843602 1.11848341,37.0758294 L1.11848341,24.2085308 C1.11848341,23.1279621 1.67772512,22.3412322 2.65876777,22.07109 C2.87203791,22.0189573 3.11374408,21.9905213 3.32227488,21.9905213 L17.2559242,21.9905213 L17.2559242,21.9905213 Z M15.7914692,0.0521327014 L15.7914692,4.62085308 L15.4976303,4.62085308 C14.7251185,4.6492891 13.957346,4.6492891 13.2132701,4.72511848 C12.056872,4.90047393 10.9810427,5.43127962 10.1374408,6.2464455 C9.03791469,7.24170616 8.29383886,8.57345972 8.01421801,10.028436 C7.90995261,10.4881517 7.88151659,10.9478673 7.82938389,11.436019 L11.1516588,11.436019 C9.28909953,13.6824645 7.43127962,15.9004739 5.57345972,18.1421801 C3.71563981,15.9241706 1.85781991,13.7345972 0,11.4881517 L3.63507109,11.4881517 C3.71090047,7.70616114 5.09478673,4.5971564 7.98578199,2.24170616 C10.2701422,0.402843602 12.9194313,-0.165876777 15.7914692,0.0521327014 Z M35.6966825,0 C36.6018957,0 37.2890995,0.3507109 37.6872038,1.1943128 C37.8199052,1.48815166 37.9004739,1.8436019 37.9004739,2.16587678 C37.92891,6.492891 37.9004739,10.8436019 37.9004739,15.1706161 C37.9004739,16.1990521 37.3175355,16.985782 36.3601896,17.2511848 C36.1469194,17.3033175 35.9052133,17.3317536 35.6966825,17.3317536 L21.7345972,17.3317536 C21.2322275,17.3270142 20.7535545,17.2227488 20.3554502,16.8957346 C19.8199052,16.478673 19.507109,15.8436019 19.507109,15.1658768 L19.507109,2.16587678 C19.507109,1.10900474 20.1184834,0.3507109 21.07109,0.0853080569 C21.2843602,0.0331753555 21.5260664,0.00473933649 21.7345972,0.00473933649 L35.6966825,0.00473933649 L35.6966825,0 Z" id="形状"></path>
                </g>
            </g>
        </g>
    </g>
</svg>