<?xml version="1.0" encoding="UTF-8"?>
<svg width="15px" height="15px" viewBox="0 0 15 15" version="1.1" xmlns="http://www.w3.org/2000/svg" xmlns:xlink="http://www.w3.org/1999/xlink">
    <title>导航展开icon备份 2</title>
    <g id="页面-1" stroke="none" stroke-width="1" fill="none" fill-rule="evenodd">
        <g id="Ozfund事务管理-2管理员设置" transform="translate(-1832, -315)" fill="#0385F2" fill-rule="nonzero">
            <g id="编组" transform="translate(1839.5, 322.4958) scale(1, -1) translate(-1839.5, -322.4958)translate(1832, 314.9916)">
                <path d="M14.1853303,6.68533035 L8.31466965,6.68533035 L8.31466965,0.814669653 C8.31466965,0.361142217 7.95352744,2.33109538e-16 7.5,2.33109538e-16 C7.04647256,2.33109538e-16 6.68533035,0.361142217 6.68533035,0.814669653 L6.68533035,6.68533035 L0.814669653,6.68533035 C0.361142217,6.68533035 0,7.04647256 0,7.5 C0,7.95352744 0.361142217,8.31466965 0.814669653,8.31466965 L6.68533035,8.31466965 L6.68533035,14.193729 C6.68533035,14.6472564 7.04647256,15.0083987 7.5,15.0083987 C7.95352744,15.0083987 8.31466965,14.6472564 8.31466965,14.193729 L8.31466965,8.31466965 L14.1853303,8.31466965 C14.6388578,8.31466965 15,7.95352744 15,7.5 C15,7.04647256 14.6388578,6.68533035 14.1853303,6.68533035 Z" id="路径"></path>
            </g>
        </g>
    </g>
</svg>