
<svg width="48px" height="44.5101959px" viewBox="0 0 48 44.5101959" version="1.1" xmlns="http://www.w3.org/2000/svg" xmlns:xlink="http://www.w3.org/1999/xlink">
  <defs>
      <linearGradient x1="89.6223211%" y1="6.53921676%" x2="59.3165066%" y2="60.5502747%" id="linearGradient-seu0-jx8hq-1">
          <stop stop-color="#FF737C" offset="0%"></stop>
          <stop stop-color="#FF546A" offset="100%"></stop>
      </linearGradient>
      <rect id="path-seu0-jx8hq-2" x="0" y="0" width="36.3878207" height="35.5101959" rx="8"></rect>
      <linearGradient x1="94.9632469%" y1="9.17850164%" x2="0%" y2="97.6172212%" id="linearGradient-seu0-jx8hq-4">
          <stop stop-color="#FF546A" offset="0%"></stop>
          <stop stop-color="#FFFFFF" offset="100%"></stop>
      </linearGradient>
      <filter x="-33.0%" y="-33.8%" width="166.0%" height="167.6%" filterUnits="objectBoundingBox" id="filter-seu0-jx8hq-5">
          <feGaussianBlur stdDeviation="4" in="SourceGraphic"></feGaussianBlur>
      </filter>
  </defs>
  <g id="资产统计优化" stroke="none" stroke-width="1" fill="none" fill-rule="evenodd">
      <g id="1资产统计" transform="translate(-1409, -490.7713)">
          <g id="编组-3备份-2" transform="translate(1409, 490.7713)">
              <path d="M21.9047574,3.52029862 L36.1780493,3.43409624 C40.5962468,3.4074129 44.1995346,6.96743846 44.2262179,11.3856359 C44.2264145,11.4181894 44.2264124,11.4507437 44.2262116,11.4832972 L44.1237903,28.0873127 C44.0967717,32.4674161 40.5523637,36.0113667 36.1722569,36.03782 L21.8989649,36.1240224 C17.4807675,36.1507057 13.8774797,32.5906802 13.8507964,28.1724827 C13.8505998,28.1399293 13.8506019,28.1073749 13.8508027,28.0748215 L13.953224,11.4708059 C13.9802426,7.09070254 17.5246506,3.54675191 21.9047574,3.52029862 Z" id="矩形备份-5" fill="url(#linearGradient-seu0-jx8hq-1)" transform="translate(29.0385, 19.7791) rotate(15) translate(-29.0385, -19.7791)"></path>
              <g id="矩形" transform="translate(0, 9)">
                  <mask id="mask-seu0-jx8hq-3" fill="white">
                      <use xlink:href="#path-seu0-jx8hq-2"></use>
                  </mask>
                  <use id="蒙版" fill="#FFFFFF" xlink:href="#path-seu0-jx8hq-2"></use>
                  <rect fill="url(#linearGradient-seu0-jx8hq-4)" filter="url(#filter-seu0-jx8hq-5)" mask="url(#mask-seu0-jx8hq-3)" x="0" y="0" width="36.3878207" height="35.5101959" rx="8"></rect>
              </g>
              <g id="编组" transform="translate(11, 21)" fill="#FFFFFF" fill-rule="nonzero">
                  <path d="M6.99896807,11.8733658 C5.40549553,11.8733658 3.81240844,11.8629585 3.483615,11.8425293 C1.60452003,11.72458 0.0754185235,10.1573184 0.00295291528,8.27398341 C-0.0770357386,6.24899512 1.47760907,4.53210117 3.50057504,4.41133504 C3.45803681,4.18419853 3.43661688,3.95361175 3.43658944,3.72252628 C3.43664483,2.71350554 3.84628437,1.74772719 4.5716944,1.04636912 C5.29710444,0.345011054 6.27614123,-0.0318434716 7.28459051,0.00211094655 C9.20878377,0.065325626 10.7868381,1.62102354 10.8774201,3.54406044 C10.8917872,3.84497677 10.8697856,4.14652732 10.8118927,4.44217147 C12.698845,4.7163628 14.0737391,6.37173161 13.9969348,8.2769536 C13.9201305,10.1821756 12.4164503,11.7215019 10.5135502,11.8429148 C10.1847568,11.8629585 8.59205516,11.8733658 6.99896807,11.8733658 Z M3.72259734,5.08935105 C2.89571934,5.08902198 2.10441864,5.42569435 1.53125864,6.02169347 C0.958098632,6.61769259 0.652586882,7.42153813 0.68520893,8.24777245 C0.744569056,9.78419759 1.99151721,11.0615967 3.52447327,11.1587315 C4.14120187,11.197277 9.85249425,11.197277 10.4684519,11.1587315 C11.9890734,11.063524 13.2356361,9.79576125 13.3065599,8.27282705 C13.3858543,6.71082337 12.2624104,5.345484 10.7143725,5.12250022 C10.5267625,5.0951565 10.3585142,4.99222978 10.2487424,4.83764869 C10.1408422,4.68636114 10.1003785,4.4971583 10.1369603,4.3149712 C10.1851028,4.07205647 10.203483,3.82418279 10.191695,3.57682414 C10.1176876,2.00802075 8.82988113,0.738330724 7.25992136,0.685908783 C6.43719858,0.658755216 5.63867096,0.966605621 5.0470895,1.53900537 C4.45550803,2.11140512 4.12151342,2.89935552 4.12154365,3.72252628 C4.1214966,3.97281843 4.15230848,4.22216163 4.21328203,4.46491333 C4.25132378,4.61519374 4.21766825,4.77461985 4.12212983,4.89670092 C4.02659141,5.01878199 3.87992855,5.08977062 3.72491007,5.0889656 L3.72259734,5.08935105 Z M10.4750047,4.38165497 L10.8107363,4.48165497 L10.4750047,4.38165497 Z" id="形状"></path>
                  <path d="M6.84478592,8.44782378 L6.82744042,8.44782378 C5.33302991,8.43857285 4.25683849,7.21436656 4.21174021,7.16425736 C4.08897033,7.02139896 4.10466447,6.80619976 4.24686198,6.68266501 C4.38905949,6.55913026 4.60433982,6.57366932 4.72863588,6.71520184 C4.74443955,6.73293279 5.65835426,7.7582441 6.8363059,7.76325503 C7.52704194,7.76710959 8.18963973,7.4163452 8.80906654,6.7225255 C8.9292428,6.58339632 9.13619773,6.56006564 9.28433302,6.6689472 C9.35922565,6.72704934 9.40667119,6.81360658 9.41536486,6.90799505 C9.42405854,7.00238353 9.39322185,7.09615097 9.33020221,7.16695555 C8.57509512,8.01727012 7.73865695,8.44782378 6.84478592,8.44782378 L6.84478592,8.44782378 Z" id="路径"></path>
              </g>
          </g>
      </g>
  </g>
</svg>