
<svg width="10.4999682px" height="14px" viewBox="0 0 10.4999682 14" version="1.1" xmlns="http://www.w3.org/2000/svg" xmlns:xlink="http://www.w3.org/1999/xlink">
  <g id="页面-1" stroke="none" stroke-width="1" fill="none" fill-rule="evenodd">
      <g id="7系统管理-7员工管理-详情-1基本信息" transform="translate(-300, -108)">
          <rect fill="#F6F7F9" x="0" y="0" width="1920" height="1080"></rect>
          <g id="编组-7" transform="translate(284, 89)" fill="#999999" fill-rule="nonzero">
              <g id="编组" transform="translate(16, 19)">
                  <path d="M5.24996297,14 C5.24996297,14 0,8.14941941 0,5.24999118 C0,2.35081685 2.35057705,0 5.24996297,0 C8.14936298,0 10.4999682,2.35081685 10.4999682,5.24999118 C10.4999682,8.14940531 5.24996297,14 5.24996297,14 Z M5.24996297,1.75000177 C3.31711426,1.75000177 1.74997354,3.31714249 1.74997354,5.25000177 C1.74997354,7.18312201 3.31711426,8.75000177 5.24996297,8.75000177 C7.18282579,8.75000177 8.74993829,7.18312201 8.74993829,5.25000177 C8.74993829,3.31711427 7.18282579,1.75000177 5.24996297,1.75000177 Z M5.24996297,6.99997884 C4.28342576,6.99997884 3.49998941,6.21652839 3.49998941,5.25000528 C3.49998941,4.28345398 4.28342576,3.50000352 5.24996297,3.50000352 C6.21650017,3.50000352 6.99997883,4.28345398 6.99997883,5.25000528 C6.99997883,6.21652839 6.21650017,6.99997884 5.24996297,6.99997884 Z" id="形状"></path>
              </g>
          </g>
      </g>
  </g>
</svg>