<?xml version="1.0" encoding="UTF-8"?>
<svg width="75px" height="75px" viewBox="0 0 75 75" version="1.1" xmlns="http://www.w3.org/2000/svg" xmlns:xlink="http://www.w3.org/1999/xlink">
    <title>ozbet资产备份 3</title>
    <g id="资产统计优化" stroke="none" stroke-width="1" fill="none" fill-rule="evenodd">
        <g id="1资产统计" transform="translate(-342, -207)" fill="#FFFFFF">
            <g id="ozbet资产备份-3" transform="translate(342.5, 207.5)">
                <rect id="矩形" opacity="0.200000003" x="0" y="0" width="74" height="74" rx="6"></rect>
                <g id="编组" transform="translate(17, 17)" fill-rule="nonzero">
                    <path d="M39.9428572,2.27859482 C39.8711068,1.91246836 39.7252636,1.56487555 39.5142857,1.25716622 C39.4142857,1.10716622 39.2928571,0.96430909 39.1642857,0.835737662 C39.0357143,0.707166233 38.8928572,0.585737676 38.7428572,0.485737648 C38.5864163,0.383735989 38.4215282,0.295317775 38.25,0.221451961 C38.0785714,0.150023376 37.9,0.0928805325 37.7142857,0.0571662189 C37.5285715,0.0214519471 37.3357143,1.16248631e-05 37.1357143,1.16248631e-05 L2.85,1.16248631e-05 C2.09379472,-0.00215587337 1.36826844,0.298860349 0.835714286,0.835737662 C0.707142857,0.96430909 0.592857129,1.10716622 0.485714272,1.25716622 C0.274736375,1.56487555 0.128893241,1.91246836 0.0571428432,2.27859482 C0.0214285714,2.46430909 0,2.6643091 0,2.85716625 L0,37.1428805 C0,37.3428806 0.0214285714,37.5357377 0.0571428432,37.721452 C0.128893246,38.0875784 0.27473638,38.4351712 0.485714272,38.7428805 C0.585714258,38.8928805 0.707142857,39.0357377 0.835714286,39.1643091 C1.22860608,39.5614549 1.73093314,39.8325126 2.27857144,39.9428805 C2.46428572,39.9785948 2.65714286,40.0000234 2.85714287,40.0000234 L7.14285716,34.2785948 L11.4285714,40.0000234 L15.7142857,34.2785948 L20,40.0000234 L24.2857143,34.2785948 L28.5714286,40.0000234 L32.8571429,34.2785948 L37.1428572,40.0000234 C37.3428572,40.0000234 37.5357143,39.9785948 37.7214286,39.9428805 C38.087555,39.8711301 38.4351478,39.725287 38.7428572,39.5143091 C38.8928572,39.4143091 39.0357143,39.2928805 39.1642857,39.1643091 C39.2928571,39.0357377 39.4071429,38.8928805 39.5142857,38.7428805 C39.7252636,38.4351712 39.8711068,38.0875784 39.9428572,37.721452 C39.9785714,37.5357377 40,37.3428806 40,37.1428805 L40,2.85716625 C40,2.6643091 39.9785714,2.47145196 39.9428572,2.27859482 L39.9428572,2.27859482 Z M10.0785714,9.30002338 L19.3785714,9.30002338 C20.1642857,9.30002338 20.8071429,9.94288052 20.8071429,10.7285948 C20.8071429,11.5143091 20.1642857,12.1571663 19.3785714,12.1571663 L10.0785714,12.1571663 C9.28959323,12.1571663 8.65000001,11.517573 8.65000001,10.7285948 C8.65000001,9.9396166 9.28959323,9.30002338 10.0785714,9.30002338 Z M10.0785714,17.9571662 L15.7857143,17.9571662 C16.5714285,17.9571662 17.2142857,18.6000234 17.2142857,19.3857377 C17.2142857,20.1714519 16.5714286,20.8143091 15.7857143,20.8143091 L10.0785714,20.8143091 C9.56819201,20.8143091 9.09658196,20.542025 8.84139224,20.1000234 C8.58620252,19.6580219 8.58620252,19.1134535 8.84139224,18.6714519 C9.09658196,18.2294504 9.56819201,17.9571662 10.0785714,17.9571662 L10.0785714,17.9571662 Z M28.6714286,29.4785948 L10.0785714,29.4785948 C9.29285717,29.4785948 8.64999999,28.8357377 8.64999999,28.0500234 C8.64999999,27.2643091 9.29285713,26.621452 10.0785714,26.621452 L28.6785715,26.621452 C29.4642857,26.621452 30.1071429,27.2643091 30.1071429,28.0500234 C30.1071429,28.8357377 29.4642857,29.4785948 28.6714286,29.4785948 L28.6714286,29.4785948 Z M25.2357143,22.6928805 L22.3071429,22.3071662 L21.9214286,19.3785948 L32.1142857,9.18573765 L35.4285715,12.5000234 L25.2357143,22.6928805 Z" id="形状"></path>
                </g>
            </g>
        </g>
    </g>
</svg>