
<svg width="48px" height="44.5101959px" viewBox="0 0 48 44.5101959" version="1.1" xmlns="http://www.w3.org/2000/svg" xmlns:xlink="http://www.w3.org/1999/xlink">
  <defs>
      <linearGradient x1="81.195269%" y1="0%" x2="59.3165066%" y2="60.5502747%" id="linearGradient-0gr55dcaee-1">
          <stop stop-color="#FFEA14" offset="0%"></stop>
          <stop stop-color="#F8C400" offset="100%"></stop>
      </linearGradient>
      <rect id="path-0gr55dcaee-2" x="0" y="0" width="36.3878207" height="35.5101959" rx="8"></rect>
      <linearGradient x1="94.9632469%" y1="9.17850164%" x2="0%" y2="92.6168258%" id="linearGradient-0gr55dcaee-4">
          <stop stop-color="#F3B700" offset="0%"></stop>
          <stop stop-color="#FFFFFF" offset="100%"></stop>
      </linearGradient>
      <filter x="-33.0%" y="-33.8%" width="166.0%" height="167.6%" filterUnits="objectBoundingBox" id="filter-0gr55dcaee-5">
          <feGaussianBlur stdDeviation="4" in="SourceGraphic"></feGaussianBlur>
      </filter>
  </defs>
  <g id="资产统计优化" stroke="none" stroke-width="1" fill="none" fill-rule="evenodd">
      <g id="1资产统计" transform="translate(-863, -490.7713)">
          <g id="编组-3备份" transform="translate(863, 490.7713)">
              <path d="M21.9047574,3.52029862 L36.1780493,3.43409624 C40.5962468,3.4074129 44.1995346,6.96743846 44.2262179,11.3856359 C44.2264145,11.4181894 44.2264124,11.4507437 44.2262116,11.4832972 L44.1237903,28.0873127 C44.0967717,32.4674161 40.5523637,36.0113667 36.1722569,36.03782 L21.8989649,36.1240224 C17.4807675,36.1507057 13.8774797,32.5906802 13.8507964,28.1724827 C13.8505998,28.1399293 13.8506019,28.1073749 13.8508027,28.0748215 L13.953224,11.4708059 C13.9802426,7.09070254 17.5246506,3.54675191 21.9047574,3.52029862 Z" id="矩形备份-5" fill="url(#linearGradient-0gr55dcaee-1)" transform="translate(29.0385, 19.7791) rotate(15) translate(-29.0385, -19.7791)"></path>
              <g id="矩形" transform="translate(0, 9)">
                  <mask id="mask-0gr55dcaee-3" fill="white">
                      <use xlink:href="#path-0gr55dcaee-2"></use>
                  </mask>
                  <use id="蒙版" fill="#FFFFFF" xlink:href="#path-0gr55dcaee-2"></use>
                  <rect fill="url(#linearGradient-0gr55dcaee-4)" filter="url(#filter-0gr55dcaee-5)" mask="url(#mask-0gr55dcaee-3)" x="0" y="0" width="36.3878207" height="35.5101959" rx="8"></rect>
              </g>
              <g id="编组" transform="translate(11, 20)" fill="#FFFFFF" fill-rule="nonzero">
                  <path d="M0.571183773,8.855025 C0.884942401,8.85410862 1.13881378,8.59950138 1.13881247,8.28574144 L1.13881247,4.2662721 C1.13881247,3.57030994 1.71795828,3.06520266 2.51428377,3.06520268 L12.2297837,3.06520268 L11.2656376,4.02441292 C11.158324,4.13043631 11.0979261,4.27501146 11.0979261,4.42586626 C11.0979261,4.57672107 11.158324,4.72129621 11.2656376,4.8273196 C11.4901826,5.04209912 11.8439992,5.04209912 12.0685443,4.8273196 L13.6677764,3.23960454 C13.8669279,3.04272189 13.9790027,2.77432636 13.9790027,2.49428337 C13.9790027,2.21424038 13.8669279,1.94584485 13.6677764,1.74896221 L12.0652537,0.164537737 C11.957895,0.058602215 11.8129791,-0.000547139053 11.662155,3.81469267e-06 C11.4326942,0.00126734387 11.2265612,0.140556586 11.1397906,0.352982426 C11.0530201,0.565408266 11.1026812,0.809182909 11.2656376,0.970735031 L12.2297837,1.92994526 L2.52251026,1.92994526 C1.88292661,1.91893497 1.26121577,2.14118344 0.773555739,2.55515949 C0.277912943,2.984962 -0.00466821963,3.61024797 0.000200943745,4.2662721 L0.000200943745,8.28574144 C-0.00017693275,8.43714275 0.0598845282,8.58244641 0.167096251,8.68934916 C0.274307973,8.79625192 0.419784366,8.85589378 0.571183773,8.855025 Z M13.424272,5.14486262 C13.2732911,5.14486262 13.128494,5.20483952 13.0217344,5.31159911 C12.9149749,5.41835869 12.8549979,5.56315577 12.8549979,5.71413662 L12.8549979,9.41277233 C12.8549979,10.2222602 12.2116854,10.9346754 11.4795267,10.9346754 L1.74592839,10.9346754 L2.71007454,9.97546514 C2.87282642,9.81412489 2.92259512,9.57074421 2.83624432,9.35846518 C2.74989353,9.14618615 2.54436427,9.00665548 2.31520239,9.00473779 C2.16349154,9.00206758 2.01727749,9.06150418 1.91045845,9.16926784 L0.311226282,10.7569829 C0.112074829,10.9538656 0,11.2222611 0,11.5023041 C0,11.7823471 0.112074829,12.0507426 0.311226282,12.2476252 L1.91045845,13.8353403 C2.05447173,13.978178 2.26374846,14.0333352 2.45945614,13.9800349 C2.65516382,13.9267346 2.80756979,13.7730743 2.85926419,13.5769363 C2.91095859,13.3807983 2.85408782,13.1719807 2.71007454,13.029143 L1.74592839,12.0699328 L11.4795267,12.0699328 C12.1700199,12.0625957 12.8242063,11.7594653 13.2761949,11.2374107 C13.7271089,10.7359868 13.9792926,10.0870965 13.9853195,9.41277233 L13.9853195,5.71413662 C13.9853195,5.4029201 13.735456,5.14935997 13.424272,5.14486262 L13.424272,5.14486262 Z" id="形状"></path>
              </g>
          </g>
      </g>
  </g>
</svg>