<?xml version="1.0" encoding="UTF-8"?>
<svg width="505px" height="225px" viewBox="0 0 505 225" version="1.1" xmlns="http://www.w3.org/2000/svg" xmlns:xlink="http://www.w3.org/1999/xlink">
    <title>编组 2</title>
    <defs>
        <linearGradient x1="1.41889742%" y1="40.0745025%" x2="100%" y2="58.7018224%" id="linearGradient-1">
            <stop stop-color="#F1B64A" offset="0%"></stop>
            <stop stop-color="#F98268" offset="100%"></stop>
        </linearGradient>
        <rect id="path-2" x="0" y="0" width="505" height="225" rx="6"></rect>
        <rect id="path-4" x="0" y="0" width="223" height="187"></rect>
        <polygon id="path-6" points="0 0 238 0 238 214 0 214"></polygon>
    </defs>
    <g id="资产统计优化" stroke="none" stroke-width="1" fill="none" fill-rule="evenodd">
        <g id="1资产统计" transform="translate(-1367, -173)">
            <g id="编组-2" transform="translate(1367, 173)">
                <mask id="mask-3" fill="white">
                    <use xlink:href="#path-2"></use>
                </mask>
                <use id="蒙版" fill="url(#linearGradient-1)" xlink:href="#path-2"></use>
                <g opacity="0.699999988" mask="url(#mask-3)" id="编组">
                    <g transform="translate(282, 38)">
                        <mask id="mask-5" fill="white">
                            <use xlink:href="#path-4"></use>
                        </mask>
                        <g id="蒙版"></g>
                        <g opacity="0.100000001" mask="url(#mask-5)">
                            <mask id="mask-7" fill="white">
                                <use xlink:href="#path-6"></use>
                            </mask>
                            <g id="Clip-2"></g>
                            <path d="M233.808454,0.567164602 C235.411015,0.30936251 236.744964,1.7909663 236.307902,3.35142719 C234.22427,10.7973582 233.114921,18.6481901 233.114921,26.7507582 C233.114921,28.5447575 233.169554,30.317526 233.281855,32.0781626 C233.561089,36.8156552 234.23034,41.4515434 235.245599,45.9539811 C235.491446,47.0428158 235.749434,48.1301341 236.042326,49.2068369 C236.747999,51.8030556 237.216931,54.4523513 237.559903,57.1198447 C237.565973,57.1683721 237.572043,57.2168996 237.576596,57.2669435 C237.74353,58.6727231 237.854313,60.0769863 237.921086,61.5024802 C237.977236,62.5503699 238,63.5982596 238,64.6461493 C238,66.9527197 237.877076,69.2380595 237.64337,71.4900366 C237.620606,71.6674651 237.597842,71.84641 237.576596,72.025355 C237.263975,74.8111341 236.772281,77.5423198 236.11517,80.2052638 C234.954224,84.8972618 233.281855,89.401216 231.151177,93.6246209 C220.778542,114.266986 199.65236,128.600782 175.114666,129.246804 C174.512188,129.280167 173.909711,129.292299 173.307233,129.292299 C172.994612,129.292299 172.683509,129.292299 172.370888,129.280167 C158.372763,129.090606 145.456669,124.454718 134.961111,116.719139 C134.425406,116.317271 133.736426,115.916919 133.211345,115.504436 L133.211345,161.161187 C133.211345,162.375889 131.542011,162.714065 131.068527,161.594901 L130.746801,160.830593 C128.365723,155.198376 125.397344,149.811829 121.674729,144.959083 C117.027909,138.905284 111.440193,133.611242 105.12404,129.292299 C105.057266,129.246804 104.990493,129.202826 104.923719,129.157332 C104.298478,128.734233 103.674754,128.321749 103.038889,127.921398 C91.9742395,120.910698 78.8563085,116.831359 64.8035504,116.785864 L34.5764623,116.785864 C33.3441902,116.785864 32.3456249,117.78371 32.3456249,119.015094 L32.3456249,149.108181 C32.3456249,153.243629 33.1256592,157.200133 34.5536986,160.833626 C39.2384572,172.894215 50.9723584,181.432013 64.6912497,181.432013 C64.7580231,181.432013 64.836937,181.432013 64.9037104,181.419882 L64.9704838,181.419882 C65.7854223,181.453244 66.5988433,181.409266 67.4137819,181.309178 L67.4244049,181.309178 C72.1091635,180.763244 76.5586977,178.311092 79.5043136,174.165027 C85.0358798,166.38547 83.2072002,155.60631 75.4220329,150.07873 C75.2323359,149.945279 75.0426388,149.810312 74.8529417,149.688993 C71.573459,147.393038 68.1725701,145.430709 64.6700036,143.780776 C60.9231073,142.008008 57.0699807,140.596162 53.1576685,139.53614 C51.9405722,139.205547 52.1029529,137.457042 53.3595062,137.350889 C55.3976114,137.181043 57.4584803,137.093087 59.5390776,137.093087 C73.2124416,137.093087 86.0071288,140.816052 96.9822418,147.324797 C99.0673919,148.541016 101.097909,149.878554 103.038889,151.31618 C103.674754,151.783256 104.298478,152.262465 104.923719,152.753805 C106.495929,153.979124 108.024128,155.272683 109.485554,156.632969 C115.273591,161.960373 120.193574,168.212832 124.019384,175.156807 C129.807421,185.622056 133.167335,197.626534 133.211345,210.410485 L133.211345,210.656155 L133.211345,210.656155 C133.211345,212.503231 131.713497,214 129.865089,214 L108.265423,214 C106.357829,214 104.847841,212.409209 104.931307,210.506023 C105.084583,207.065124 104.982905,203.625741 104.633862,200.212138 C104.108781,200.624621 103.573076,201.024972 103.038889,201.42684 C92.5418131,209.16242 79.6257197,213.798308 65.629112,213.987868 C65.3164912,214 65.0038705,214 64.6912497,214 C64.0887718,214 63.4878116,213.987868 62.8853337,213.954506 C38.3461222,213.308484 17.2214578,198.974687 6.84730503,178.332322 C4.71814524,174.108917 3.0442584,169.60648 1.88482997,164.912965 C1.22620179,162.250021 0.736024587,159.518836 0.423403835,156.733056 C0.400640188,156.554112 0.379394117,156.375167 0.35663047,156.197738 C0.122923694,153.945761 0,151.661938 0,149.353851 C0,148.305961 0.0212460706,147.258071 0.0773963999,146.210182 C0.144169765,144.784688 0.256470423,143.380425 0.423403835,141.974645 C0.427956564,141.924601 0.432509294,141.87759 0.440097176,141.829063 C0.778516728,139.185833 1.23378967,136.559285 1.93642757,133.988846 C2.23842529,132.887879 2.5024836,131.774781 2.75440129,130.663199 C3.76965995,126.159245 4.43891117,121.523357 4.71814524,116.785864 C4.82892832,115.025227 4.88507865,113.252459 4.88507865,111.45846 C4.88507865,103.355892 3.77421268,95.5050597 1.69209776,88.0606451 C1.25503574,86.4986678 2.58898546,85.017064 4.19002863,85.2748661 L25.2630955,88.6748207 C27.6031984,89.0539414 29.9782056,89.184359 32.3456249,89.0660733 L32.3456249,89.0660733 C37.3536272,88.8431503 42.2387059,88.1971286 46.9796147,87.1598543 C47.0236245,87.1492389 47.0691518,87.1386235 47.1131615,87.1264917 C48.4622869,86.8368434 49.7901664,86.5032172 51.1180458,86.1347119 C55.4901836,85.1990419 60.0292548,84.7092179 64.6912497,84.7092179 C81.7457741,84.7092179 97.2599583,91.307435 108.816303,102.095694 C110.198815,98.0391026 111.939475,94.149324 113.980616,90.4491057 C119.155552,81.0529777 126.350382,72.9155305 134.961111,66.6084781 C136.900573,65.1693359 138.931091,63.831798 141.016241,62.6170952 C151.992871,56.1083506 164.786041,52.3853851 178.460922,52.3853851 C180.540002,52.3853851 182.602389,52.4733411 184.638976,52.6431872 C185.89553,52.749341 186.05791,54.4978457 184.840814,54.828439 C180.930019,55.8884606 177.076893,57.3003061 173.329996,59.0730746 C169.82743,60.723008 166.425023,62.6838204 163.147058,64.981292 C162.955844,65.1026106 162.766147,65.2375776 162.577967,65.3710281 C154.791282,70.8986082 152.962603,81.6762522 158.494169,89.4573259 C161.439785,93.6033901 165.890837,96.055543 170.574077,96.6014768 L170.586218,96.6014768 C171.399639,96.7015647 172.214578,96.7455427 173.027999,96.7121801 L173.09629,96.7121801 C173.163063,96.7243119 173.240459,96.7243119 173.307233,96.7243119 C187.026124,96.7243119 198.760025,88.1865132 203.444784,76.1259248 C204.872823,72.4924318 205.652858,68.5359279 205.652858,64.400479 L205.652858,34.3073925 C205.652858,33.0760084 204.654292,32.0781626 203.42202,32.0781626 L173.19645,32.0781626 C159.142174,32.1221407 146.025761,36.2014796 134.961111,43.2121801 C123.907084,50.2228805 114.894197,60.1543269 109.028764,71.9237507 C108.74953,69.5398396 108.615983,67.1089175 108.615983,64.6461493 C108.615983,54.2248788 111.080527,44.3829048 115.463288,35.6676777 C126.093911,14.5233567 148.000128,0 173.307233,0 C177.969228,0 182.509816,0.491340457 186.881954,1.4270104 C188.208316,1.79551575 189.536195,2.12914198 190.885321,2.41879022 C190.930848,2.43092208 190.974858,2.44153746 191.018868,2.45215284 C195.759777,3.48942714 200.644855,4.13544885 205.652858,4.35837184 L205.693832,4.35988832 C208.035453,4.4766575 210.381626,4.34775646 212.69593,3.97470166 L233.808454,0.567164602 Z" id="Fill-1" fill="#FFFFFF" mask="url(#mask-7)"></path>
                        </g>
                    </g>
                </g>
            </g>
        </g>
    </g>
</svg>