<?xml version="1.0" encoding="UTF-8"?>
<svg width="150px" height="40px" viewBox="0 0 150 40" version="1.1" xmlns="http://www.w3.org/2000/svg" xmlns:xlink="http://www.w3.org/1999/xlink">
    <title>导航logo</title>
    <defs>
        <polygon id="path-1" points="-2.84217094e-14 0 23.3950563 0 23.3950563 34.326 -2.84217094e-14 34.326"></polygon>
        <polygon id="path-3" points="0 0 35.627547 0 35.627547 17.4581717 0 17.4581717"></polygon>
        <polygon id="path-5" points="-1.42108547e-14 0 24.424 0 24.424 35.969 -1.42108547e-14 35.969"></polygon>
    </defs>
    <g id="页面-1" stroke="none" stroke-width="1" fill="none" fill-rule="evenodd">
        <g id="Ozfund事务管理-1待办事务" transform="translate(-55, -22)">
            <g id="导航logo" transform="translate(55, 22)">
                <rect id="矩形" x="0" y="0" width="150" height="40"></rect>
                <g id="编组" transform="translate(1, 1)">
                    <path d="M102.8152,23.9059 L101.6352,27.2539 C101.0172,29.0039 99.3632,30.1749 97.5062,30.1749 C95.0892,30.1749 93.1292,28.2149 93.1292,25.7979 L93.1292,17.0429 C93.1292,13.8429 90.5352,11.4449 87.3352,11.4449 L87.3352,26.0029 C87.3352,31.5069 91.7972,35.9689 97.3022,35.9689 L97.3022,35.9689 C101.5282,35.9689 105.2952,33.3029 106.7012,29.3169 L108.6092,23.9059 L102.8152,23.9059 Z" id="Fill-1" fill="#000000"></path>
                    <path d="M114.3325,11.4451 C110.1055,11.4451 106.3385,13.9141 104.9335,17.9001 L103.2715,22.6131 L109.0655,22.6131 L109.9995,19.9641 C110.6165,18.2131 112.2715,17.0421 114.1275,17.0421 C116.5455,17.0421 118.5045,19.0021 118.5045,21.4201 L118.5045,30.1751 C118.5045,33.3751 121.0995,35.9691 124.2995,35.9691 L124.2995,21.2151 C124.2995,15.7101 119.8365,11.4451 114.3325,11.4451" id="Fill-3" fill="#0385F2"></path>
                    <g transform="translate(125.6048, 1.6427)">
                        <mask id="mask-2" fill="white">
                            <use xlink:href="#path-1"></use>
                        </mask>
                        <g id="Clip-6"></g>
                        <path d="M11.6973563,28.292 C8.46735628,28.292 5.84835628,25.528 5.84835628,22.118 C5.84835628,18.709 8.46735628,15.944 11.6973563,15.944 C14.9273563,15.944 17.5463563,18.709 17.5463563,22.118 C17.5463563,25.528 14.9273563,28.292 11.6973563,28.292 L11.6973563,28.292 Z M23.3953563,0 L22.1413563,0 C19.6033563,0 17.5463563,2.057 17.5463563,4.595 L17.5463563,11.998 C15.6943563,10.926 13.5293563,10.336 11.2143563,10.431 C5.13735628,10.679 0.20335628,15.651 0.00635627995,21.729 C-0.20964372,28.367 5.10735628,33.816 11.6973563,33.816 C14.2273563,33.816 16.5673563,33.011 18.4783563,31.644 C18.9993563,32.451 19.7123563,33.121 20.5533563,33.59 C21.3943563,34.059 22.3633563,34.326 23.3953563,34.326 L23.3953563,0 Z" id="Fill-5" fill="#000000" mask="url(#mask-2)"></path>
                    </g>
                    <path d="M59.85,17.1668 L46.431,30.6028 L60.695,30.6028 L60.695,31.3718 C60.695,33.9088 58.637,35.9668 56.1,35.9668 L38.263,35.9668 L38.263,35.1078 L38.263,30.6028 L51.982,17.1668 L37.634,17.1668 L37.634,16.0398 C37.634,13.5028 39.692,11.4448 42.229,11.4448 L59.85,11.4448 L59.85,17.1668 Z" id="Fill-7" fill="#000000"></path>
                    <path d="M22.2947,2.4919 C12.6567,0.1379 2.9387,6.0139 0.5307,15.6249 L0.5387,15.6269 C0.5287,15.6619 0.5117,15.6929 0.5027,15.7279 C0.4287,16.0299 0.4197,16.3309 0.4407,16.6249 C0.5307,17.8499 1.3827,18.9369 2.6377,19.2429 C4.1957,19.6239 5.7717,18.6659 6.1527,17.1079 C6.1567,17.0929 6.1577,17.0769 6.1597,17.0609 C6.1617,17.0409 6.1637,17.0209 6.1677,17.0009 L6.1837,17.0049 C7.8267,10.5259 14.4087,6.5529 20.9147,8.1419 C24.8087,9.0929 27.8017,11.8249 29.2517,15.2609 C30.1887,17.4819 32.2197,19.0469 34.6237,19.2299 L36.0307,19.3379 C35.7437,11.4829 30.3077,4.4489 22.2947,2.4919" id="Fill-9" fill="#0385F2"></path>
                    <g transform="translate(0, 20.5808)">
                        <mask id="mask-4" fill="white">
                            <use xlink:href="#path-3"></use>
                        </mask>
                        <g id="Clip-12"></g>
                        <path d="M35.625,2.80857175 C35.58,1.54057175 34.714,0.39957175 33.422,0.0835717498 C31.864,-0.29742825 30.287,0.66057175 29.907,2.21857175 L29.902,2.21757175 C29.893,2.25257175 29.89,2.28757175 29.881,2.32257175 C29.877,2.33857175 29.871,2.35357175 29.867,2.36957175 C28.249,8.88357175 21.645,12.8835717 15.119,11.2895717 C11.225,10.3385717 8.231,7.60657175 6.78,4.17057175 C5.842,1.94957175 3.811,0.38457175 1.407,0.20057175 L0,0.0935717498 C0.287,7.94857175 5.726,14.9815717 13.739,16.9395717 C23.412,19.3015717 33.168,13.3755717 35.531,3.70357175 C35.538,3.67557175 35.543,3.64757175 35.549,3.61957175 C35.551,3.61257175 35.555,3.60557175 35.556,3.59857175 C35.621,3.33257175 35.634,3.06857175 35.625,2.80857175" id="Fill-11" fill="#000000" mask="url(#mask-4)"></path>
                    </g>
                    <g transform="translate(61.4733, 0)">
                        <mask id="mask-6" fill="white">
                            <use xlink:href="#path-5"></use>
                        </mask>
                        <g id="Clip-14"></g>
                        <path d="M20.505,3.606 C18.603,3.606 16.458,3.689 15.509,5.337 C15.012,6.197 15.006,8.078 15.006,9.143 L15.006,11.445 L24.424,11.445 L24.424,12.572 C24.424,15.109 22.367,17.167 19.829,17.167 L15.006,17.167 L15.006,31.374 C15.006,33.912 12.949,35.969 10.411,35.969 L9.134,35.969 L9.134,17.167 L-1.42108547e-14,17.167 L-1.42108547e-14,16.04 C-1.42108547e-14,13.502 2.057,11.445 4.595,11.445 L9.134,11.445 L9.134,7.378 C9.134,6.614 9.25,5.877 9.466,5.184 C10.4,2.18 13.201,-0.001 16.512,-0.001 L17.301,-0.001 C19.07,-0.001 20.505,1.434 20.505,3.204 L20.505,3.606 Z" id="Fill-13" fill="#000000" mask="url(#mask-6)"></path>
                    </g>
                </g>
            </g>
        </g>
    </g>
</svg>