
<svg width="78.8392px" height="70.94px" viewBox="0 0 78.8392 70.94" version="1.1" xmlns="http://www.w3.org/2000/svg" xmlns:xlink="http://www.w3.org/1999/xlink">
  <defs>
      <path d="M57.481,0.001 L57.4093,0 C58.9536,0 60.4577,0.163 61.906,0.473 C62.3454,0.595 62.7853,0.706 63.2322,0.802 C63.2472,0.806 63.2618,0.809 63.2764,0.813 C64.8469,1.156 66.4651,1.371 68.124,1.445 L68.1376,1.445 C68.9133,1.484 69.6905,1.441 70.4571,1.317 L77.4508,0.188 C77.9816,0.102 78.4235,0.593 78.2787,1.111 C77.5885,3.579 77.221,6.182 77.221,8.868 C77.221,9.462 77.2391,10.05 77.2763,10.634 C77.3688,12.204 77.5905,13.741 77.9268,15.233 C78.0083,15.594 78.0937,15.955 78.1908,16.312 C78.4245,17.172 78.5798,18.05 78.6935,18.935 C78.6955,18.951 78.6975,18.967 78.699,18.984 C78.7543,19.45 78.791,19.915 78.8131,20.388 C78.8317,20.735 78.8392,21.082 78.8392,21.43 C78.8392,22.194 78.7985,22.952 78.7211,23.698 C78.7136,23.757 78.706,23.817 78.699,23.876 C78.5954,24.799 78.4326,25.705 78.2149,26.587 C77.8303,28.143 77.2763,29.636 76.5705,31.036 C73.1345,37.879 66.1363,42.63 58.008,42.845 C57.8084,42.856 57.6089,42.86 57.4093,42.86 C57.3057,42.86 57.2027,42.86 57.0991,42.856 C52.4621,42.793 48.1836,41.256 44.7069,38.692 C44.5294,38.558 44.3012,38.426 44.1272,38.289 L44.1272,53.424 C44.1272,53.827 43.5743,53.939 43.4174,53.568 L43.3108,53.314 C42.5221,51.447 41.5388,49.662 40.3056,48.053 C38.7664,46.046 36.9154,44.291 34.8231,42.86 C34.801,42.845 34.7789,42.83 34.7568,42.815 C34.5496,42.675 34.343,42.538 34.1324,42.405 C30.4671,40.081 26.1217,38.729 21.4667,38.714 L11.4537,38.714 C11.0455,38.714 10.7147,39.045 10.7147,39.453 L10.7147,49.429 C10.7147,50.799 10.9731,52.111 11.4462,53.315 C12.998,57.314 16.885,60.144 21.4295,60.144 C21.4516,60.144 21.4777,60.144 21.4998,60.14 L21.5219,60.14 C21.7919,60.151 22.0614,60.136 22.3313,60.103 C23.8867,59.922 25.3606,59.109 26.3364,57.735 C28.1688,55.156 27.563,51.583 24.9841,49.75 C24.9213,49.706 24.8584,49.661 24.7956,49.621 C23.7092,48.86 22.5827,48.209 21.4224,47.663 C20.1812,47.075 18.9048,46.607 17.6089,46.255 C17.2057,46.146 17.2595,45.566 17.6757,45.531 C18.3509,45.475 19.0335,45.446 19.7228,45.446 C24.2522,45.446 28.4905,46.68 32.1261,48.837 C32.8168,49.241 33.4894,49.684 34.1324,50.16 C34.343,50.315 34.5496,50.474 34.7568,50.637 C35.2776,51.043 35.7838,51.472 36.2679,51.923 C38.1852,53.689 39.815,55.762 41.0823,58.064 C42.9997,61.533 44.1127,65.512 44.1272,69.75 L44.1272,69.831 C44.1272,70.444 43.6311,70.94 43.0188,70.94 L35.8637,70.94 C35.2318,70.94 34.7316,70.413 34.7593,69.782 C34.81,68.641 34.7764,67.501 34.6607,66.369 C34.4868,66.506 34.3093,66.639 34.1324,66.772 C30.6552,69.336 26.3766,70.873 21.7401,70.936 C21.6366,70.94 21.533,70.94 21.4295,70.94 C21.2299,70.94 21.0308,70.936 20.8312,70.925 C12.7024,70.711 5.7047,65.959 2.2682,59.116 C1.5629,57.716 1.0084,56.224 0.6244,54.668 C0.4062,53.785 0.2438,52.88 0.1403,51.956 L0.1181,51.779 C0.0407,51.032 0,50.275 0,49.51 C0,49.163 0.007,48.815 0.0256,48.468 C0.0478,47.995 0.085,47.53 0.1403,47.064 C0.1418,47.047 0.1433,47.032 0.1458,47.016 C0.2579,46.139 0.4087,45.269 0.6415,44.417 C0.7415,44.052 0.829,43.683 0.9124,43.314 C1.2487,41.821 1.4704,40.284 1.5629,38.714 C1.5996,38.13 1.6182,37.543 1.6182,36.948 C1.6182,34.262 1.2502,31.659 0.5605,29.192 C0.4157,28.674 0.8576,28.183 1.388,28.268 L8.3686,29.395 C8.98876,29.4958 9.61628,29.54348 10.243992,29.538552 L10.7147,29.525 C12.3737,29.451 13.9919,29.237 15.5623,28.893 C15.5769,28.889 15.592,28.886 15.6066,28.882 C16.0535,28.786 16.4934,28.675 16.9332,28.553 C18.3815,28.243 19.8851,28.081 21.4295,28.081 C27.0789,28.081 32.2181,30.268 36.0462,33.844 C36.5042,32.499 37.0808,31.21 37.7569,29.983 C39.4712,26.869 41.8545,24.171 44.7069,22.08 C45.3493,21.603 46.0219,21.16 46.7127,20.757 C50.3488,18.599 54.5866,17.365 59.1165,17.365 C59.8052,17.365 60.4884,17.394 61.163,17.451 C61.5793,17.486 61.633,18.066 61.2299,18.175 C59.9344,18.527 58.658,18.995 57.4168,19.582 C56.2566,20.129 55.1295,20.779 54.0437,21.541 C53.9803,21.581 53.9175,21.626 53.8551,21.67 C51.2757,23.502 50.67,27.075 52.5024,29.655 C53.4781,31.029 54.9526,31.842 56.5039,32.023 C56.7774,32.056 57.0473,32.071 57.3168,32.059 L57.3394,32.059 C57.3615,32.063 57.3872,32.063 57.4093,32.063 C61.9538,32.063 65.8407,29.233 67.3926,25.235 C67.8656,24.031 68.124,22.719 68.124,21.348 L68.124,11.373 C68.124,10.964 67.7932,10.634 67.385,10.634 L57.3726,10.634 C52.717,10.648 48.3721,12 44.7069,14.324 C41.0451,16.648 38.0595,19.941 36.1166,23.842 C36.0241,23.052 35.9798,22.246 35.9798,21.43 C35.9798,17.975 36.7962,14.713 38.2481,11.823 C41.7548977,4.84306443 48.9659819,0.0399624647 57.3050697,0 L57.481,0.001 Z" id="path-oxmznm_2fr-1"></path>
  </defs>
  <g id="页面-4" stroke="none" stroke-width="1" fill="none" fill-rule="evenodd">
      <g id="auPay_后台2.0-(1)" transform="translate(-134, -26)">
          <g id="编组" transform="translate(134, 26)">
              <mask id="mask-oxmznm_2fr-2" fill="white">
                  <use xlink:href="#path-oxmznm_2fr-1"></use>
              </mask>
              <g id="Clip-316"></g>
              <polygon id="Fill-315" fill="#1C63FF" mask="url(#mask-oxmznm_2fr-2)" points="-2 -2 80.8392 -2 80.8392 72.94 -2 72.94"></polygon>
          </g>
      </g>
  </g>
</svg>