<?xml version="1.0" encoding="UTF-8"?>
<svg width="20px" height="20px" viewBox="0 0 20 20" version="1.1" xmlns="http://www.w3.org/2000/svg" xmlns:xlink="http://www.w3.org/1999/xlink">
    <title>IP管理</title>
    <g id="页面-1" stroke="none" stroke-width="1" fill="none" fill-rule="evenodd">
        <g id="Ozfund事务管理-1待办事务" transform="translate(-20, -605)">
            <g id="编组-6备份-21" transform="translate(20, 590)">
                <g id="IP管理" transform="translate(0, 15)">
                    <rect id="矩形备份-3" x="0" y="0" width="20" height="20"></rect>
                    <g id="编组" transform="translate(2.5303, 2.4983)" fill="#999999" fill-rule="nonzero">
                        <polygon id="路径" points="4.28163352 4.28480745 10.7088447 4.28480745 10.7088447 10.7120186 4.28163352 10.7120186"></polygon>
                        <path d="M3.21201862,3.21201862 L11.7816335,3.21201862 L11.7816335,11.7816335 L3.21201862,11.7816335 L3.21201862,3.21201862 Z M14.9936521,5.55438003 L14.9936521,4.08167584 L13.9208633,4.08167584 L13.9208633,1.87261955 C13.9208633,1.8472281 13.9208633,1.81866272 13.9176894,1.79327127 C13.9145154,1.76787981 13.9113415,1.74248836 13.9049937,1.71392298 L13.8859501,1.63774862 C13.8796022,1.61235717 13.8700804,1.58696572 13.8605586,1.5647482 C13.8510368,1.53935675 13.8383411,1.51713923 13.8256454,1.49492171 C13.8129496,1.47270419 13.8002539,1.45048667 13.7843843,1.42826915 C13.7685146,1.40605163 13.7526449,1.38383411 13.7367753,1.36479052 C13.7209056,1.34574693 13.701862,1.32352941 13.6828185,1.30765975 C13.6637749,1.28861617 13.6447313,1.27274651 13.6256877,1.25370292 C13.6066441,1.23783326 13.5844266,1.22196361 13.5622091,1.20609395 C13.5399915,1.19022429 13.517774,1.17752857 13.4955565,1.16483284 C13.473339,1.15213711 13.4479475,1.14261532 13.42573,1.12991959 C13.4003386,1.1203978 13.378121,1.11087601 13.3527296,1.10452814 L13.2765552,1.08548455 C13.2511638,1.07913669 13.2257723,1.07596276 13.1972069,1.07278883 C13.1718155,1.0696149 13.1432501,1.0696149 13.1178587,1.0696149 L10.9088024,1.0696149 L10.9088024,0 L9.43609818,0 L9.43609818,1.07278883 L8.23000423,1.07278883 L8.23000423,0 L6.75730004,0 L6.75730004,1.07278883 L5.55120609,1.07278883 L5.55120609,0 L4.0785019,0 L4.0785019,1.07278883 L1.87261955,1.07278883 C1.8472281,1.07278883 1.81866272,1.07278883 1.79327127,1.07596276 C1.76787981,1.07913669 1.74248836,1.08231062 1.71392298,1.08865848 L1.63774862,1.10770207 C1.61235717,1.11404994 1.58696572,1.12357173 1.5647482,1.13309353 C1.54253068,1.14261532 1.51713923,1.15531105 1.49492171,1.16800677 C1.47270419,1.1807025 1.45048667,1.19339822 1.42826915,1.20926788 C1.40605163,1.22513754 1.38383411,1.24100719 1.36479052,1.25687685 C1.34574693,1.27274651 1.32352941,1.2917901 1.30765975,1.31083369 C1.28861617,1.32987727 1.27274651,1.34892086 1.25370292,1.36796445 C1.23783326,1.38700804 1.22196361,1.40922556 1.20609395,1.43144308 C1.19022429,1.4536606 1.17752857,1.47587812 1.16483284,1.49809564 C1.15213711,1.52031316 1.14261532,1.54570461 1.12991959,1.56792213 C1.1203978,1.59331358 1.11087601,1.6155311 1.10452814,1.64092256 L1.08548455,1.71709691 C1.07913669,1.74248836 1.07596276,1.76787981 1.07278883,1.7964452 C1.0696149,1.82183665 1.0696149,1.85040203 1.0696149,1.87579348 L1.0696149,4.08484977 L0,4.08484977 L0,5.55755396 L1.07278883,5.55755396 L1.07278883,6.76364791 L0,6.76364791 L0,8.23635209 L1.07278883,8.23635209 L1.07278883,9.44244604 L0,9.44244604 L0,10.9151502 L1.07278883,10.9151502 L1.07278883,13.1242065 C1.07278883,13.149598 1.07278883,13.1781634 1.07596276,13.2035548 C1.07913669,13.2289463 1.08231062,13.2543377 1.08865848,13.2829031 L1.10770207,13.3590774 C1.11404994,13.3844689 1.12357173,13.4098603 1.13309353,13.4320779 C1.14261532,13.4574693 1.15531105,13.4796868 1.16800677,13.5019044 C1.1807025,13.5241219 1.19339822,13.5463394 1.20926788,13.5685569 C1.22513754,13.5907744 1.24100719,13.612992 1.25687685,13.6320355 C1.27274651,13.6510791 1.2917901,13.6732967 1.31083369,13.6891663 C1.32987727,13.7082099 1.34892086,13.7240796 1.36796445,13.7431231 C1.38700804,13.7589928 1.40922556,13.7748625 1.43144308,13.7907321 C1.4536606,13.8066018 1.47587812,13.8192975 1.49809564,13.8319932 C1.52031316,13.844689 1.54570461,13.8542107 1.56792213,13.8669065 C1.59331358,13.8764283 1.6155311,13.8859501 1.64092256,13.8922979 L1.71709691,13.9113415 C1.74248836,13.9176894 1.76787981,13.9208633 1.7964452,13.9240372 C1.82501058,13.9272112 1.85040203,13.9272112 1.87579348,13.9272112 L4.08484977,13.9272112 L4.08484977,15 L5.55755396,15 L5.55755396,13.9272112 L6.76364791,13.9272112 L6.76364791,15 L8.23635209,15 L8.23635209,13.9272112 L9.44244604,13.9272112 L9.44244604,15 L10.9151502,15 L10.9151502,13.9272112 L13.1242065,13.9272112 C13.149598,13.9272112 13.1781634,13.9272112 13.2035548,13.9240372 C13.2289463,13.9208633 13.2543377,13.9176894 13.2829031,13.9113415 L13.3590774,13.8922979 C13.3844689,13.8859501 13.4098603,13.8764283 13.4320779,13.8669065 C13.4574693,13.8573847 13.4796868,13.844689 13.5019044,13.8319932 C13.5241219,13.8192975 13.5463394,13.8066018 13.5685569,13.7907321 C13.5907744,13.7748625 13.612992,13.7589928 13.6320355,13.7431231 C13.6510791,13.7272535 13.6732967,13.7082099 13.6891663,13.6891663 C13.7082099,13.6701227 13.7240796,13.6510791 13.7431231,13.6320355 C13.7589928,13.612992 13.7748625,13.5907744 13.7907321,13.5685569 C13.8066018,13.5463394 13.8192975,13.5241219 13.8319932,13.5019044 C13.844689,13.4796868 13.8542107,13.4542954 13.8669065,13.4320779 C13.8764283,13.4066864 13.8859501,13.3844689 13.8922979,13.3590774 L13.9113415,13.2829031 C13.9176894,13.2575116 13.9208633,13.2321202 13.9240372,13.2035548 C13.9272112,13.1781634 13.9272112,13.149598 13.9272112,13.1242065 L13.9272112,10.9151502 L15,10.9151502 L15,9.44244604 L13.9272112,9.44244604 L13.9272112,8.23635209 L15,8.23635209 L15,6.76364791 L13.9272112,6.76364791 L13.9272112,5.55755396 L14.9936521,5.55755396 L14.9936521,5.55438003 Z" id="形状"></path>
                    </g>
                </g>
            </g>
        </g>
    </g>
</svg>