<?xml version="1.0" encoding="UTF-8"?>
<svg width="20px" height="20px" viewBox="0 0 20 20" version="1.1" xmlns="http://www.w3.org/2000/svg" xmlns:xlink="http://www.w3.org/1999/xlink">
    <title>业务管理</title>
    <g id="页面-1" stroke="none" stroke-width="1" fill="none" fill-rule="evenodd">
        <g id="Ozfund事务管理-1待办事务" transform="translate(-20, -705)">
            <g id="编组-6备份-24" transform="translate(20, 690)">
                <g id="业务管理" transform="translate(0, 15)">
                    <rect id="矩形备份-3" x="0" y="0" width="20" height="20"></rect>
                    <g id="编组" transform="translate(3, 4)" fill="#999999" fill-rule="nonzero">
                        <path d="M11.5993765,-4.4305081e-16 L2.21512081,-4.4305081e-16 C1.93141076,-4.4305081e-16 1.70226033,0.283710055 1.70226033,0.634450507 C1.70226033,0.985190959 1.93141076,1.26890101 2.21512081,1.26890101 L11.6882307,1.26890101 C11.9719408,1.26890101 12.2010912,0.985190959 12.2010912,0.634450507 L12.2010912,0.617303196 C12.2010912,0.275915822 11.9766173,-4.4305081e-16 11.7007015,-4.4305081e-16 L11.5993765,-4.4305081e-16 L11.5993765,-4.4305081e-16 Z M11.5993765,2.20732658 L2.21512081,2.20732658 C1.93141076,2.20732658 1.70226033,2.49103663 1.70226033,2.84177708 C1.70226033,3.19251754 1.93141076,3.47622759 2.21512081,3.47622759 L11.6882307,3.47622759 C11.9719408,3.47622759 12.2010912,3.19251754 12.2010912,2.84177708 L12.2010912,2.82462977 C12.2010912,2.4832424 11.9766173,2.20732658 11.7007015,2.20732658 L11.5993765,2.20732658 L11.5993765,2.20732658 Z M5.98752923,7.31722525 L8.20732658,7.31722525 C8.37724084,7.31722525 8.54403741,7.24863601 8.67965705,7.12236945 L10.3616524,5.55416991 C10.497272,5.42790335 10.6640686,5.35931411 10.8339829,5.35931411 L11.8550273,5.35931411 C12.0483242,5.35931411 12.2057677,5.16601715 12.2057677,4.92751364 C12.2057677,4.68901013 12.0483242,4.49571317 11.8550273,4.49571317 L2.05300078,4.49571317 C1.85970382,4.49571317 1.70226033,4.68901013 1.70226033,4.92751364 C1.70226033,5.16601715 1.85970382,5.35931411 2.05300078,5.35931411 L3.34372564,5.35931411 C3.51987529,5.35931411 3.6913484,5.43257989 3.83008574,5.56819953 L5.53078722,7.22837101 C5.59002338,7.28604832 5.66484801,7.3187841 5.73967264,7.3187841 L5.98752923,7.3187841 L5.98752923,7.31722525 Z" id="形状"></path>
                        <path d="M10.5923617,6.56742011 L8.7014809,8.33203429 C8.56586126,8.45830086 8.39906469,8.5268901 8.22915043,8.5268901 L5.91738114,8.5268901 C5.74123149,8.5268901 5.56975838,8.45362432 5.43102104,8.31800468 L3.6913484,6.57677319 C3.66952455,6.56897896 3.54325799,6.56742011 3.36710834,6.56742011 L0.78254092,6.56742011 C0.350740452,6.56742011 0,7.00077942 0,7.53390491 L0,11.4201091 C0,11.9532346 0.350740452,12.3865939 0.78254092,12.3865939 L13.2174591,12.3865939 C13.6492595,12.3865939 14,11.9532346 14,11.4201091 L14,7.53390491 C14,6.99922058 13.6492595,6.56742011 13.2174591,6.56742011 L10.5923617,6.56742011 Z" id="路径"></path>
                    </g>
                </g>
            </g>
        </g>
    </g>
</svg>