<?xml version="1.0" encoding="UTF-8"?>
<svg width="20px" height="20px" viewBox="0 0 20 20" version="1.1" xmlns="http://www.w3.org/2000/svg" xmlns:xlink="http://www.w3.org/1999/xlink">
    <title>个人资料</title>
    <g id="页面-1" stroke="none" stroke-width="1" fill="none" fill-rule="evenodd">
        <g id="Ozfund事务管理-1待办事务" transform="translate(-20, -755)">
            <g id="编组-6备份-23" transform="translate(20, 740)">
                <g id="个人资料" transform="translate(0, 15)">
                    <rect id="矩形备份-3" x="0" y="0" width="20" height="20"></rect>
                    <g id="编组" transform="translate(3, 2)" fill="currentcolor" fill-rule="nonzero">
                        <path d="M5.23052245,5.02533181 C4.58022159,5.02533181 4.00059868,5.51010443 3.74732865,6.20127014 L6.71605039,6.20127014 C6.46612238,5.50324353 5.89155673,5.02533181 5.23052245,5.02533181 Z" id="路径"></path>
                        <path d="M5.73140443,3.43324762 C5.73174003,3.14227795 5.50660324,2.90607175 5.23054013,2.90607175 C4.95447702,2.90607175 4.72999448,3.14277306 4.72999448,3.43324762 C4.72999448,3.72439412 4.95445933,3.96109542 5.23054013,3.96109542 C5.50662093,3.96109542 5.73140443,3.72439412 5.73140443,3.43324762 Z" id="路径"></path>
                        <path d="M12.5808001,0 L1.41886395,0 C0.635235158,0 0,0.635394307 0,1.41886395 L0,14.0194333 C0,14.8030621 0.635235158,15.4382973 1.41886395,15.4382973 L12.5808001,15.4382973 C13.3644466,15.4382973 14,14.8030621 14,14.0194333 L14,1.41886397 C14,0.635394307 13.3644642,0 12.5808001,0 Z M8.96747132,3.49089338 L10.5545159,3.49089338 C10.8490045,3.49089338 11.0865546,3.72923918 11.0865546,4.02291433 C11.0865546,4.31673092 10.8483502,4.55493527 10.5545159,4.55493527 L8.96747132,4.55493527 C8.67298279,4.55493527 8.4354327,4.31673092 8.4354327,4.02291433 C8.4354327,3.7292392 8.67298277,3.49089338 8.96747132,3.49089338 Z M3.93796639,4.3294625 C3.7664437,4.07415893 3.66559898,3.76545345 3.66559898,3.43324762 C3.66559898,2.55531671 4.36748042,1.84183538 5.23054015,1.84183538 C6.09359987,1.84183538 6.79548132,2.55597096 6.79548132,3.43324762 C6.79548132,3.76577175 6.69428294,4.07499003 6.52242428,4.33062955 C7.27257964,4.79197254 7.80626274,5.64613784 7.89941548,6.66614965 C7.92588655,6.95879919 7.71043992,7.21811673 7.41796721,7.24457012 C7.41595137,7.24474695 7.41427151,7.24474695 7.41225568,7.2449061 C7.365697,7.25815047 7.3167865,7.26534738 7.26653213,7.26534738 L3.09067968,7.26534738 L3.09000773,7.26534738 C3.07828406,7.26534738 3.0665604,7.26469312 3.05515501,7.264198 C3.05181297,7.26402117 3.04845325,7.26402117 3.04511121,7.26368519 C2.75228484,7.23889398 2.53519371,6.98176909 2.55931299,6.68860676 C2.64675421,5.65685359 3.1817989,4.7936524 3.93796639,4.3294625 Z M6.25674092,12.511466 L3.14059808,12.511466 C2.8467638,12.511466 2.60855946,12.273244 2.60855946,11.9787554 C2.60855946,11.6849388 2.8467638,11.4473888 3.14059808,11.4473888 L6.25674092,11.4473888 C6.55089349,11.4473888 6.78877954,11.6849388 6.78877954,11.9787554 C6.78877954,12.273244 6.55022154,12.511466 6.25674092,12.511466 Z M7.85483724,9.85097231 L3.12753053,9.85097231 C2.83337795,9.85097231 2.59549191,9.61275028 2.59549191,9.31843858 C2.59549191,9.02444515 2.83337795,8.78691276 3.12753053,8.78691276 L7.85483724,8.78691276 C8.14932577,8.78691276 8.38719414,9.02444515 8.38719414,9.31843858 C8.38719414,9.61275028 8.14932577,9.85097231 7.85483724,9.85097231 Z M8.96747132,6.14314692 L10.5545159,6.14314692 C10.8490045,6.14314692 11.0865546,6.38136895 11.0865546,6.67536237 C11.0865546,6.96901982 10.8483502,7.20722416 10.5545159,7.20722416 L8.96747132,7.20722416 C8.67298279,7.20722416 8.4354327,6.96901982 8.4354327,6.67536237 C8.4354327,6.38136896 8.67298277,6.14314692 8.96747132,6.14314692 Z M9.81076172,13.3788403 L8.46292938,14.0673359 L8.49138093,12.5617204 L12.3506237,6.39174871 L13.6696508,7.22329776 L9.81076172,13.3788403 Z" id="形状"></path>
                    </g>
                </g>
            </g>
        </g>
    </g>
</svg>