<?xml version="1.0" encoding="UTF-8"?>
<svg width="20px" height="20px" viewBox="0 0 20 20" version="1.1" xmlns="http://www.w3.org/2000/svg" xmlns:xlink="http://www.w3.org/1999/xlink">
    <title>事物管理</title>
    <g id="页面-1" stroke="none" stroke-width="1" fill="none" fill-rule="evenodd">
        <g id="Ozfund事务管理-1待办事务" transform="translate(-20, -110)">
            <g id="编组-6备份-25" transform="translate(20, 95)">
                <g id="事物管理" transform="translate(0, 15)">
                    <rect id="矩形备份-3" x="0" y="0" width="20" height="20"></rect>
                    <g id="编组" transform="translate(2, 3)" fill="#0385F2" fill-rule="nonzero" opacity="0.8">
                        <path d="M15.9912342,13.3196924 L15.9912342,3.15010455 C15.9912342,1.92201718 14.8858336,2.04470396 14.8858336,2.04470396 L8.62222215,2.04470396 C8.22903906,2.04470396 8.05708244,1.84957588 8.05708244,1.84957588 C8.05708244,1.84957588 7.78683004,1.38297585 7.32023002,0.64587952 C6.82899507,-0.115607823 6.23922044,0.00732286938 6.23922044,0.00732286938 L1.37565298,0.00732286938 C0.0246349204,0.00732286938 0,1.33370601 0,1.33370601 L0,13.2460315 C0,14.7197364 1.10540059,14.5477798 1.10540059,14.5477798 L14.9838855,14.5477798 C16.1631908,14.5477798 15.9912342,13.3196924 15.9912342,13.3196924 Z M13.9523896,5.26260995 C13.9523896,5.58213219 13.7067722,5.82774966 13.4121288,5.82774966 L2.60374035,5.82774966 C2.45313553,5.83021637 2.30797706,5.77145944 2.20149208,5.66492847 C2.0950071,5.55839751 2.03631283,5.4132137 2.03876592,5.26260995 L2.03876592,5.21382793 C2.03876592,4.91918453 2.28446203,4.67332314 2.60374035,4.67332314 L13.4121288,4.67332314 C13.7094421,4.67610379 13.9497432,4.91651336 13.9523896,5.21382793 L13.9523896,5.26260995 Z" id="形状"></path>
                    </g>
                </g>
            </g>
        </g>
    </g>
</svg>