<?xml version="1.0" encoding="UTF-8"?>
<svg width="20px" height="20px" viewBox="0 0 20 20" version="1.1" xmlns="http://www.w3.org/2000/svg" xmlns:xlink="http://www.w3.org/1999/xlink">
    <title>日志管理</title>
    <g id="页面-1" stroke="none" stroke-width="1" fill="none" fill-rule="evenodd">
        <g id="Ozfund事务管理-1待办事务" transform="translate(-20, -655)">
            <g id="编组-6备份-22" transform="translate(20, 640)">
                <g id="日志管理" transform="translate(0, 15)">
                    <rect id="矩形备份-3" x="0" y="0" width="20" height="20"></rect>
                    <g id="编组" transform="translate(4, 3)" fill="#999999" fill-rule="nonzero">
                        <path d="M0.161281317,7.54639543 L1.34318363,7.54639543 C1.38601148,7.54639543 1.42708072,7.56342975 1.45733561,7.59374255 C1.48759051,7.62405535 1.50454634,7.66515708 1.50446467,7.70798485 L1.50446467,7.88685984 C1.50412436,7.97569156 1.432016,8.04752326 1.34318363,8.04752326 L0.161281317,8.04752326 C0.0722084282,8.04752326 2.93679844e-07,7.9753154 2.93679844e-07,7.88624251 L2.93679844e-07,7.70798485 C-8.13779796e-05,7.66515708 0.0168744571,7.62405535 0.0471293488,7.59374256 C0.0773842406,7.56342976 0.118453472,7.54639543 0.161281317,7.54639543 L0.161281317,7.54639543 Z M0.161281317,2.53666064 L1.34318363,2.53666064 C1.43225653,2.53666064 1.50446438,2.60886849 1.50446438,2.69794139 L1.50446438,2.87727939 C1.50446438,2.96635228 1.43225653,3.03856013 1.34318363,3.03856013 L0.161281317,3.03856013 C0.0722084282,3.03856013 5.8948595e-07,2.96635228 5.8948595e-07,2.87727939 L5.8948595e-07,2.69794139 C5.8948595e-07,2.6088685 0.0722084282,2.53666064 0.161281317,2.53666064 L0.161281317,2.53666064 Z M0.161281317,5.04229972 L1.34318363,5.04229972 C1.43225653,5.04229972 1.50446438,5.11450757 1.50446438,5.20358046 L1.50446438,5.38245546 C1.50446438,5.47152835 1.43225653,5.5437362 1.34318363,5.5437362 L0.161281317,5.5437362 C0.0722084282,5.5437362 5.8948595e-07,5.47152835 5.8948595e-07,5.38245546 L5.8948595e-07,5.2037348 C5.8948595e-07,5.11466191 0.0722084282,5.04245406 0.161281317,5.04245406 L0.161281317,5.04229972 Z M0.161281317,10.0501825 L1.34318363,10.0501825 C1.43225653,10.0501825 1.50446438,10.1223903 1.50446438,10.2114632 L1.50446438,10.3903382 C1.50446438,10.4794111 1.43225653,10.551619 1.34318363,10.551619 L0.161281317,10.551619 C0.0722084282,10.551619 5.8948595e-07,10.4794111 5.8948595e-07,10.3903382 L5.8948595e-07,10.2116176 C5.8948595e-07,10.1225447 0.0722084282,10.0503368 0.161281317,10.0503368 L0.161281317,10.0501825 Z" id="形状"></path>
                        <path d="M11.9986704,1.00132972 L11.1167966,1.00132972 C11.0526598,1.0015118 10.9986312,0.953464159 10.9913217,0.889745059 C10.9341038,0.383263349 10.5058688,0.000388818804 9.99616549,0 L1.60431953,0 C1.30511985,0 1.01813482,0.118658329 0.806539736,0.330195522 C0.59494465,0.541732716 0.476121383,0.82868523 0.476121383,1.12788493 L0.476121383,1.87610412 C0.476121383,1.9459134 0.532717633,2.00250499 0.602526912,2.00250499 L1.35090042,2.00250499 C1.51750764,2.00238215 1.67733537,2.06846995 1.79520237,2.18622118 C1.91306938,2.3039724 1.97931423,2.4637351 1.97935513,2.63034237 L1.97935513,3.00537797 C1.97876093,3.28206719 1.75460787,3.50622025 1.47791865,3.50681446 L0.603144257,3.50681446 C0.569460261,3.50664984 0.537103835,3.51993677 0.513256408,3.54372624 C0.489408982,3.56751571 0.476121383,3.59983971 0.476121383,3.63352401 L0.476121383,4.38189753 C0.476121383,4.45170681 0.532717633,4.50829841 0.602526912,4.50829841 L1.35090042,4.50829841 C1.69773066,4.50829841 1.97889212,4.78945987 1.97889212,5.13629011 L1.97889212,5.38492484 C1.97889212,5.55147859 1.9127289,5.71121074 1.79495761,5.82898203 C1.67718632,5.94675332 1.51745417,6.01291654 1.35090042,6.01291654 L0.603144257,6.01291654 C0.533334977,6.01291654 0.476743372,6.06950814 0.476743364,6.13931742 L0.476743364,6.8875366 C0.476743372,6.95734588 0.533334977,7.01393748 0.603144257,7.01393748 L1.35151776,7.01393748 C1.698348,7.01393748 1.97950947,7.29509895 1.97950947,7.64192919 L1.97950947,8.01665612 C1.97900013,8.29340561 1.75482231,8.51765244 1.47807299,8.51824695 L0.603144257,8.51824695 C0.533334977,8.51824695 0.476743372,8.57483855 0.476743364,8.64464783 L0.476743364,9.39471903 C0.476743364,9.46452831 0.533334972,9.52111992 0.603144257,9.52111992 L1.35151776,9.52111992 C1.698348,9.52111992 1.97950947,9.80228138 1.97950947,10.1491116 L1.97950947,10.5207518 C1.97891525,10.7974411 1.7547622,11.0215941 1.47807299,11.0221883 L0.603144257,11.0221883 C0.569325754,11.0220219 0.53685094,11.0354145 0.512980901,11.0593715 C0.489110862,11.0833286 0.475836562,11.1158519 0.476121383,11.1496696 L0.476121383,12.9019964 C0.476121383,13.5248247 0.981028164,14.0297269 1.60385652,14.0297269 L11.8722695,14.0297269 C12.1713622,14.0297269 12.4582049,13.9109128 12.6696954,13.6994223 C12.8811859,13.4879318 13,13.2010891 13,12.9019964 L13,2.00265933 C12.9994894,1.4498769 12.5514529,1.0019095 11.9986704,1.00148406 L11.9986704,1.00132972 Z M7.64316436,2.24805299 C7.76663286,2.03939121 8.13071064,1.94632682 8.3444655,2.06393058 L9.54041235,2.73374725 C9.75432155,2.85474639 9.85263334,3.20724898 9.72978218,3.41591076 L5.95071976,9.80108476 C5.91589636,9.86029285 5.84016332,9.88085386 5.78017889,9.84738546 L3.91426102,8.80315053 C3.88466376,8.78639278 3.86306883,8.75841435 3.85435581,8.72553725 C3.8456428,8.69266014 3.85054702,8.65765897 3.86796033,8.62844258 L7.64316436,2.24805299 Z M5.37335015,10.4357129 L3.85607648,10.999501 C3.8190339,11.0131874 3.77772342,11.0087752 3.74440711,10.9875739 C3.7110908,10.9663726 3.6895976,10.9308189 3.68630728,10.891466 L3.56283877,9.41107861 C3.5589444,9.36450128 3.58107078,9.3195766 3.62036841,9.29427228 C3.65966605,9.26896796 3.70971994,9.26741473 3.7505109,9.2902338 L5.39079006,10.2068331 C5.43386159,10.2308334 5.45904583,10.2776885 5.45529966,10.3268529 C5.45155349,10.3760173 5.41956079,10.4185157 5.37335015,10.4357129 L5.37335015,10.4357129 Z M11.9986704,12.5232567 C11.9986704,13.075624 11.9678033,13.524432 10.9974951,13.524432 L1.97935513,13.524432 C1.48295206,13.5236557 1.06175996,13.1599436 0.988674675,12.6689496 C0.983200557,12.6324757 0.993870388,12.5954252 1.01790481,12.5674493 C1.04193924,12.5394733 1.07695863,12.5233418 1.11384088,12.5232567 L9.86806691,12.5232567 C10.4908953,12.5232567 10.9957974,12.0183546 10.9957974,11.3955262 L10.9957974,1.63148212 C10.9958366,1.59766137 11.009395,1.56525983 11.0334544,1.5414903 C11.0575138,1.51772078 11.0900773,1.50455613 11.123896,1.50491928 C11.615918,1.51001999 11.9969727,1.57839067 11.9969727,2.50579351 L11.9969727,12.5232567 L11.9986704,12.5232567 Z" id="形状"></path>
                    </g>
                </g>
            </g>
        </g>
    </g>
</svg>