<?xml version="1.0" encoding="UTF-8"?>
<svg width="20px" height="20px" viewBox="0 0 20 20" version="1.1" xmlns="http://www.w3.org/2000/svg" xmlns:xlink="http://www.w3.org/1999/xlink">
    <title>权限管理</title>
    <g id="页面-1" stroke="none" stroke-width="1" fill="none" fill-rule="evenodd">
        <g id="Ozfund事务管理-1待办事务" transform="translate(-20, -555)">
            <g id="编组-6备份-20" transform="translate(20, 540)">
                <g id="权限管理" transform="translate(0, 15)">
                    <rect id="矩形备份-3" x="0" y="0" width="20" height="20"></rect>
                    <g id="编组" transform="translate(3, 2)" fill="#999999" fill-rule="nonzero">
                        <path d="M13.5871536,2.09184523 L6.99884769,0 L0.412737952,2.09184523 C0.165120577,2.16999203 -0.00215383579,2.40040613 2.09578788e-05,2.66101747 L2.09578788e-05,10.9870373 C0.013219305,11.0435885 0.323793352,12.4141772 1.67040728,13.7413917 C2.70644716,14.7622415 5.19158858,16.0744488 6.27557802,16.6434381 C6.44486558,16.7325657 6.52539156,16.7651421 6.59694987,16.804124 L6.91850473,16.9648099 C7.00324002,17.0103803 7.1553243,17.0083671 7.24005959,16.9648099 L7.56161445,16.804124 C8.19575651,16.4935499 11.1303793,14.9209142 12.3272881,13.7413917 C13.6762812,12.4141772 13.9868553,11.0435885 13.999926,10.9870373 L13.999926,2.66101747 C14.0040585,2.40040613 13.834771,2.16999203 13.5871536,2.09184523 Z M7.11774271,15.7203154 L7.09374271,15.7083154 L7.15274271,15.7083154 C7.12974271,15.7203154 7.11774271,15.7203154 7.11774271,15.7203154 Z M8.65182635,10.8371492 L7.58741937,10.8371492 L7.58741937,12.3360304 C7.58741937,12.6835732 7.30502941,12.9659632 6.95748662,12.9659632 C6.60994383,12.9659632 6.32755388,12.6835732 6.32755388,12.3360304 L6.32755388,8.4695025 C6.32755388,8.45650854 6.32975004,8.44571073 6.32975004,8.43472992 C6.2146345,8.39995734 6.09951895,8.35859627 5.98440341,8.30662041 C5.59568256,8.1285482 5.2633299,7.8091895 5.04170046,7.44645658 C4.81146937,7.06853354 4.68976534,6.59489439 4.72673408,6.15181851 C4.7701083,5.64578596 4.95257284,5.20472323 5.27632387,4.81161006 C5.83671145,4.1317146 6.86634586,3.85591314 7.69173711,4.15770253 C8.15878777,4.32936927 8.53890697,4.61615155 8.82568926,5.02006253 C9.07769896,5.3741938 9.20580846,5.81507352 9.21678928,6.2473516 C9.21678928,6.26034556 9.21898544,6.27114337 9.21678928,6.28432034 C9.21678928,6.29951047 9.21678928,6.3147006 9.21459311,6.32989072 C9.18421286,7.28997997 8.52389986,8.19571418 7.58540622,8.44571073 L7.58540622,9.55129578 L8.6498132,9.55129578 C8.99735599,9.55129578 9.27974595,9.83368573 9.27974595,10.1812285 L9.27974595,10.2072165 L9.28194211,10.2072165 C9.2817591,10.5547592 8.99936914,10.8371492 8.65182635,10.8371492 L8.65182635,10.8371492 Z" id="形状"></path>
                        <path d="M7.72431353,6.85550573 C7.730719,6.84470793 7.73730749,6.83592328 7.73950365,6.83372711 C7.77694334,6.77632172 7.8110405,6.71680445 7.84162523,6.65547189 C7.86980932,6.57512892 7.89158794,6.49478596 7.90897423,6.41005067 C7.91117039,6.36887262 7.91336655,6.32531539 7.91556272,6.28395432 C7.91556272,6.24259325 7.91336655,6.19921903 7.90897423,6.15804097 C7.8937841,6.07550185 7.86980932,5.99296272 7.84162523,5.91261976 C7.81627405,5.8614967 7.78873555,5.81148777 7.75908611,5.76273164 C7.75249762,5.75614315 7.73730749,5.73454755 7.71131956,5.69318648 C7.6875278,5.66701553 7.66355302,5.63883144 7.63756509,5.61503968 C7.60718483,5.58465942 7.57460842,5.55427917 7.53983584,5.52591206 C7.52903803,5.51950659 7.5204364,5.5129181 7.51805722,5.51072194 C7.46071445,5.47328304 7.40125813,5.43918579 7.33998501,5.40860036 C7.25964204,5.38041627 7.17929908,5.35863765 7.09675996,5.34125136 C7.01202467,5.33484588 6.92728938,5.33484588 6.84255409,5.34125136 C6.76001497,5.35644149 6.67747584,5.38041627 6.59932904,5.40860036 C6.54820598,5.43395154 6.49819705,5.46149003 6.44944092,5.49113948 C6.44285243,5.49772797 6.42125683,5.5129181 6.37989576,5.53890603 C6.35372482,5.56269779 6.32554073,5.58667257 6.30174896,5.6126605 C6.27136871,5.64304076 6.24098845,5.67561717 6.21262135,5.71038975 C6.20621587,5.72118755 6.19962738,5.72997221 6.19743122,5.73216837 C6.15999232,5.78951114 6.12589507,5.84896746 6.09530964,5.91024058 C6.06712555,5.99058355 6.04534693,6.07092651 6.02796064,6.15346563 C6.02155517,6.23820092 6.02155517,6.32293621 6.02796064,6.4076715 C6.04315077,6.49021062 6.06712555,6.57274975 6.09530964,6.65089655 C6.12129757,6.70305542 6.14746851,6.75082196 6.17784877,6.80078467 C6.18443725,6.80737316 6.19962738,6.82896876 6.22561531,6.87032983 C6.24940708,6.89650077 6.27338186,6.92468486 6.29936978,6.94847663 C6.32975004,6.97885688 6.36232646,7.00923714 6.39709904,7.03760424 C6.40789684,7.04400972 6.41668149,7.05059821 6.41887765,7.05279437 C6.47524584,7.08976311 6.53618936,7.12453569 6.59694987,7.15491595 C6.67729283,7.18310004 6.75763579,7.20487866 6.84017492,7.22226495 C6.9249102,7.22885343 7.00964549,7.22885343 7.09438078,7.22226495 C7.1769199,7.20707482 7.25945903,7.18310004 7.33760583,7.15491595 C7.3897647,7.12892802 7.43753124,7.10275708 7.48749395,7.07237682 C7.49408244,7.06578833 7.51567804,7.05059821 7.55703911,7.02461028 C7.5852232,7.00283166 7.61139415,6.9790399 7.63518591,6.95286895 C7.66574918,6.92285473 7.69612943,6.89027831 7.72431353,6.85550573 L7.72431353,6.85550573 Z" id="路径"></path>
                    </g>
                </g>
            </g>
        </g>
    </g>
</svg>