<?xml version="1.0" encoding="UTF-8"?>
<svg width="20px" height="20px" viewBox="0 0 20 20" version="1.1" xmlns="http://www.w3.org/2000/svg" xmlns:xlink="http://www.w3.org/1999/xlink">
    <title>网站运营</title>
    <g id="页面-1" stroke="none" stroke-width="1" fill="none" fill-rule="evenodd">
        <g id="Ozfund事务管理-1待办事务" transform="translate(-20, -405)">
            <g id="编组-6备份-18" transform="translate(20, 390)">
                <g id="网站运营" transform="translate(0, 15)">
                    <rect id="矩形备份-3" x="0" y="0" width="20" height="20"></rect>
                    <g id="编组" transform="translate(2, 3)" fill="#999999" fill-rule="nonzero">
                        <path d="M9.52830189,12.6415094 L5.18867925,12.6415094 L4.90566038,14.5283019 C4.90566038,14.6226415 4.90566038,14.7169811 5,14.8113208 C5.09433962,14.9056604 5,14.9056604 5.09433962,14.9056604 L9.52830189,14.9056604 C9.62264151,14.9056604 9.71698113,14.9056604 9.71698113,14.8113208 C9.81132075,14.7169811 9.81132075,14.7169811 9.81132075,14.6226415 L9.81132075,14.5283019 L9.52830189,12.6415094 L9.52830189,12.6415094 Z M13.0188679,0.849056604 L1.88679245,0.849056604 C1.32075472,0.849056604 0.849056604,1.32075472 0.849056604,1.88679245 L0.849056604,10 C0.849056604,10.5660377 1.32075472,11.1320755 1.88679245,11.1320755 L13.0188679,11.1320755 C13.5849057,11.1320755 14.0566038,10.6603774 14.0566038,10 L14.0566038,1.88679245 C14.0566038,1.32075472 13.5849057,0.849056604 13.0188679,0.849056604 Z M2.45283019,7.0754717 C2.0754717,7.0754717 1.69811321,6.69811321 1.69811321,6.32075472 C1.69811321,5.94339623 1.98113208,5.66037736 2.35849057,5.66037736 C2.54716981,5.66037736 2.64150943,5.75471698 2.73584906,5.75471698 C2.83018868,5.8490566 3.01886792,5.94339623 3.11320755,6.13207547 L3.11320755,6.32075472 C3.11320755,6.69811321 2.83018868,7.0754717 2.45283019,7.0754717 L2.45283019,7.0754717 Z M3.39622642,5.8490566 L3.11320755,5.56603774 L4.43396226,4.52830189 L4.71698113,4.81132075 L3.39622642,5.8490566 Z M5.66037736,4.62264151 C5.56603774,4.62264151 5.47169811,4.71698113 5.37735849,4.71698113 C5.09433962,4.71698113 4.90566038,4.52830189 4.71698113,4.24528302 C4.71698113,4.1509434 4.62264151,4.05660377 4.62264151,3.96226415 C4.62264151,3.77358491 4.71698113,3.58490566 4.81132075,3.49056604 C4.90566038,3.39622642 5.09433962,3.30188679 5.28301887,3.30188679 C5.47169811,3.30188679 5.66037736,3.39622642 5.75471698,3.49056604 C5.8490566,3.58490566 5.94339623,3.77358491 5.94339623,3.96226415 C5.94339623,4.05660377 5.94339623,4.1509434 5.8490566,4.24528302 C5.94339623,4.43396226 5.8490566,4.52830189 5.66037736,4.62264151 L5.66037736,4.62264151 Z M5.94339623,4.90566038 L6.22641509,4.62264151 L8.30188679,6.69811321 L8.01886792,6.98113208 L5.94339623,4.90566038 Z M8.96226415,8.30188679 C8.58490566,8.30188679 8.30188679,7.9245283 8.30188679,7.54716981 C8.30188679,7.35849057 8.39622642,7.0754717 8.67924528,6.98113208 C8.77358491,6.88679245 8.86792453,6.88679245 8.96226415,6.88679245 C9.05660377,6.88679245 9.1509434,6.88679245 9.24528302,6.98113208 C9.52830189,7.0754717 9.62264151,7.35849057 9.62264151,7.64150943 C9.62264151,7.9245283 9.33962264,8.30188679 8.96226415,8.30188679 L8.96226415,8.30188679 Z M9.90566038,6.98113208 L9.62264151,6.69811321 L11.6037736,4.52830189 L11.8867925,4.81132075 L9.90566038,6.98113208 L9.90566038,6.98113208 Z M12.9245283,4.43396226 C12.7358491,4.52830189 12.4528302,4.52830189 12.2641509,4.43396226 C11.9811321,4.33962264 11.8867925,4.05660377 11.8867925,3.77358491 C11.8867925,3.58490566 11.9811321,3.39622642 12.0754717,3.30188679 C12.1698113,3.20754717 12.3584906,3.11320755 12.5471698,3.11320755 C12.7358491,3.11320755 12.9245283,3.20754717 13.0188679,3.30188679 C13.1132075,3.39622642 13.2075472,3.58490566 13.2075472,3.77358491 C13.2075472,4.05660377 13.1132075,4.33962264 12.9245283,4.43396226 L12.9245283,4.43396226 Z" id="形状"></path>
                        <path d="M13.6792453,0 L1.22641509,0 C0.566037736,0 0,0.566037736 0,1.22641509 L0,10.754717 C0,11.4150943 0.566037736,11.9811321 1.22641509,11.9811321 L13.7735849,11.9811321 C14.4339623,11.9811321 15,11.4150943 15,10.754717 L15,1.22641509 C14.9056604,0.471698113 14.3396226,0 13.6792453,0 Z M14.4339623,10.2830189 C14.4339623,10.8490566 13.9622642,11.4150943 13.3018868,11.4150943 L1.50943396,11.4150943 C0.943396226,11.4150943 0.377358491,10.9433962 0.377358491,10.2830189 L0.377358491,1.50943396 C0.377358491,0.943396226 0.849056604,0.377358491 1.50943396,0.377358491 L13.3018868,0.377358491 C13.8679245,0.377358491 14.4339623,0.849056604 14.4339623,1.50943396 L14.4339623,10.2830189 L14.4339623,10.2830189 Z" id="形状"></path>
                    </g>
                </g>
            </g>
        </g>
    </g>
</svg>