<?xml version="1.0" encoding="UTF-8"?>
<svg width="20px" height="20px" viewBox="0 0 20 20" version="1.1" xmlns="http://www.w3.org/2000/svg" xmlns:xlink="http://www.w3.org/1999/xlink">
    <title>订阅邮箱</title>
    <g id="页面-1" stroke="none" stroke-width="1" fill="none" fill-rule="evenodd">
        <g id="Ozfund事务管理-1待办事务" transform="translate(-20, -455)">
            <g id="编组-6备份-17" transform="translate(20, 440)">
                <g id="订阅邮箱" transform="translate(0, 15)">
                    <rect id="矩形备份-3" x="0" y="0" width="20" height="20"></rect>
                    <g id="编组" transform="translate(2.645, 4)" fill="#999999" fill-rule="nonzero">
                        <path d="M14.97129,2.57911191 L11.7222789,5.82908001 L14.97129,8.80534643 L14.97129,2.57911191 Z M7.48564502,8.89243333 C6.72961592,8.89243333 6.01760878,8.59767768 5.48264642,8.06271532 L3.73995151,6.31906342 L0,9.7470333 L0,10.3212326 C0,11.0724767 0.610565267,11.683042 1.36085237,11.683042 L13.6104377,11.683042 C14.3607248,11.683042 14.97129,11.0724767 14.97129,10.3221896 L14.97129,9.72885033 L11.2399515,6.31045043 L9.48864361,8.06175833 C8.95789849,8.5955163 8.23700973,8.89427852 7.48564502,8.89243333 Z" id="形状"></path>
                        <path d="M1.38860533,0 C0.639275233,0 0.0296669644,0.610565267 0.0296669644,1.36085237 L0.0296669644,1.64508103 L5.99272681,7.61005487 C6.39945132,8.01582238 6.94015567,8.23976011 7.51435498,8.23976011 C8.08951129,8.23976011 8.63021564,8.01582238 9.03598316,7.61005487 L15,1.64508103 L15,1.36085237 C15,0.610565267 14.3875207,0 13.6381906,0 L1.38860533,0 Z M1.13686838e-13,8.82352941 L3.25762409,5.83769299 L1.13686838e-13,2.57911191 L1.13686838e-13,8.82352941 Z" id="形状"></path>
                    </g>
                </g>
            </g>
        </g>
    </g>
</svg>