<?xml version="1.0" encoding="UTF-8"?>
<svg width="20px" height="20px" viewBox="0 0 20 20" version="1.1" xmlns="http://www.w3.org/2000/svg" xmlns:xlink="http://www.w3.org/1999/xlink">
    <title>资产统计</title>
    <g id="页面-1" stroke="none" stroke-width="1" fill="none" fill-rule="evenodd">
        <g id="Ozfund事务管理-1待办事务" transform="translate(-20, -505)">
            <g id="编组-6备份-19" transform="translate(20, 490)">
                <g id="资产统计" transform="translate(0, 15)">
                    <rect id="矩形备份-3" x="0" y="0" width="20" height="20"></rect>
                    <g id="编组备份" transform="translate(2.5084, 3.1679)" fill="#999999" fill-rule="nonzero">
                        <path d="M14.53125,9.84375 L14.1796875,9.84375 C14.1152344,9.84375 14.0625,9.79101562 14.0625,9.7265625 L14.0625,1.9921875 C14.0625,1.92773438 14.1152344,1.875 14.1796875,1.875 L14.53125,1.875 C14.7905273,1.875 15,1.66552734 15,1.40625 C15,1.14697266 14.7905273,0.9375 14.53125,0.9375 L8.49609375,0.9375 C8.46386719,0.9375 8.4375,0.911132812 8.4375,0.87890625 C8.4375,0.635742188 8.33935547,0.416015625 8.1796875,0.2578125 C8.02148438,0.0981445313 7.80175781,0 7.55859375,0 L7.44140625,0 C6.95654297,0 6.5625,0.394042969 6.5625,0.87890625 C6.5625,0.895019531 6.55664063,0.909667969 6.54492188,0.919921875 C6.53466797,0.930175781 6.52001953,0.9375 6.50390625,0.9375 L0.46875,0.9375 C0.209472656,0.9375 0,1.14697266 0,1.40625 C0,1.53515625 0.052734375,1.65234375 0.137695313,1.73730469 C0.22265625,1.82226563 0.33984375,1.875 0.46875,1.875 L0.8203125,1.875 C0.884765625,1.875 0.9375,1.92773438 0.9375,1.9921875 L0.9375,9.7265625 C0.9375,9.79101562 0.884765625,9.84375 0.8203125,9.84375 L0.46875,9.84375 C0.209472656,9.84375 0,10.0532227 0,10.3125 C0,10.4414062 0.052734375,10.5585938 0.137695313,10.6435547 C0.22265625,10.7285156 0.33984375,10.78125 0.46875,10.78125 L5.80224609,10.78125 C5.95166016,10.78125 6.06298828,10.9204102 6.03076172,11.0668945 L5.27929688,14.4433594 C5.21630859,14.7290039 5.43310547,15 5.72607422,15 C5.83300781,15 5.93408203,14.9633789 6.01318359,14.8989258 C6.09228516,14.8359375 6.15087891,14.7451172 6.17285156,14.6411133 L6.91552734,11.3012695 C6.93017578,11.2324219 7.03125,11.2441406 7.03125,11.3144531 L7.03125,14.5415039 C7.03125,14.7949219 7.23632812,14.9985352 7.48828125,14.9985352 L7.51025391,14.9985352 C7.76367187,14.9985352 7.96728516,14.793457 7.96728516,14.5415039 L7.96728516,11.3144531 C7.96728516,11.2441406 8.06835938,11.2338867 8.08300781,11.3012695 L8.82568359,14.6411133 C8.87255859,14.8505859 9.05712891,14.9985352 9.27246094,15 C9.56689453,15 9.78515625,14.7290039 9.72070312,14.4433594 L8.96923828,11.0668945 C8.93701172,10.9204102 9.04833984,10.78125 9.19775391,10.78125 L14.53125,10.78125 C14.7905273,10.78125 15,10.5717773 15,10.3125 C15,10.1835938 14.9472656,10.0664062 14.8623047,9.98144531 C14.7773437,9.89648437 14.6601563,9.84375 14.53125,9.84375 Z M7.5,9.375 C5.55761719,9.375 3.984375,7.80029297 3.984375,5.859375 C3.984375,3.91845703 5.55761719,2.34375 7.5,2.34375 C9.44238281,2.34375 11.015625,3.91845703 11.015625,5.859375 C11.015625,7.80029297 9.44238281,9.375 7.5,9.375 Z" id="形状"></path>
                        <path d="M10.5565848,6.09375 L10.6208705,6.09375 L10.6208705,5.859375 C10.6208705,5.93847656 10.599442,6.01611328 10.5565848,6.09375 Z M9.82177734,5.15625 L8.203125,5.15625 C8.07421875,5.15625 7.96875,5.05078125 7.96875,4.921875 L7.96875,3.46875 C7.96875,3.39257813 8.04052734,3.33691406 8.11523437,3.35449219 C8.56933594,3.46435547 8.98535156,3.69726563 9.32373047,4.03564453 C9.60058594,4.3125 9.80712891,4.640625 9.93310547,4.99951172 C9.95947266,5.07568359 9.90234375,5.15625 9.82177734,5.15625 Z" id="形状"></path>
                        <path d="M9.32226562,7.68310547 C8.82275391,8.18261719 8.15332031,8.45214844 7.44580078,8.4375 C6.78955078,8.42431641 6.15966797,8.15917969 5.69238281,7.69775391 C5.19287109,7.20703125 4.91894531,6.54931641 4.921875,5.84912109 C4.92480469,5.16796875 5.19580078,4.51757813 5.67773437,4.03564453 C6.01611328,3.69726563 6.43359375,3.46435547 6.88769531,3.35302734 C6.9609375,3.33544922 7.03125,3.39111328 7.03125,3.46728516 L7.03125,5.15625 C7.03125,5.67333984 7.45166016,6.09375 7.96875,6.09375 L9.93603516,6.09375 C10.0078125,6.09375 10.0620117,6.15673828 10.0517578,6.22705078 C9.97412109,6.77636719 9.72216797,7.28320313 9.32226562,7.68310547 Z M10.6208705,5.859375 L10.6208705,6.09375 L10.5565848,6.09375 C10.599442,6.01611328 10.6208705,5.93847656 10.6208705,5.859375 Z" id="形状"></path>
                    </g>
                </g>
            </g>
        </g>
    </g>
</svg>